<svg viewBox="0 0 330 200" xmlns="http://www.w3.org/2000/svg"><g><g><g><g><g><line x1="51.5625" y1="178" x2="46.5625" y2="178" style="visibility: inherit;" fill="rgb(0, 0, 0)" stroke="rgb(204, 204, 204)" stroke-width="1px"></line><line x1="51.5625" y1="165.28571428571428" x2="46.5625" y2="165.28571428571428" style="visibility: inherit;" fill="rgb(0, 0, 0)" stroke="rgb(204, 204, 204)" stroke-width="1px"></line><line x1="51.5625" y1="152.57142857142856" x2="46.5625" y2="152.57142857142856" style="visibility: inherit;" fill="rgb(0, 0, 0)" stroke="rgb(204, 204, 204)" stroke-width="1px"></line><line x1="51.5625" y1="139.85714285714283" x2="46.5625" y2="139.85714285714283" style="visibility: inherit;" fill="rgb(0, 0, 0)" stroke="rgb(204, 204, 204)" stroke-width="1px"></line><line x1="51.5625" y1="127.14285714285711" x2="46.5625" y2="127.14285714285711" style="visibility: inherit;" fill="rgb(0, 0, 0)" stroke="rgb(204, 204, 204)" stroke-width="1px"></line><line x1="51.5625" y1="114.42857142857137" x2="46.5625" y2="114.42857142857137" style="visibility: inherit;" fill="rgb(0, 0, 0)" stroke="rgb(204, 204, 204)" stroke-width="1px"></line><line x1="51.5625" y1="101.71428571428565" x2="46.5625" y2="101.71428571428565" style="visibility: inherit;" fill="rgb(0, 0, 0)" stroke="rgb(204, 204, 204)" stroke-width="1px"></line><line x1="51.5625" y1="88.99999999999991" x2="46.5625" y2="88.99999999999991" style="visibility: inherit;" fill="rgb(0, 0, 0)" stroke="rgb(204, 204, 204)" stroke-width="1px"></line><line x1="51.5625" y1="76.2857142857142" x2="46.5625" y2="76.2857142857142" style="visibility: inherit;" fill="rgb(0, 0, 0)" stroke="rgb(204, 204, 204)" stroke-width="1px"></line><line x1="51.5625" y1="63.571428571428484" x2="46.5625" y2="63.571428571428484" style="visibility: inherit;" fill="rgb(0, 0, 0)" stroke="rgb(204, 204, 204)" stroke-width="1px"></line><line x1="51.5625" y1="50.857142857142755" x2="46.5625" y2="50.857142857142755" style="visibility: inherit;" fill="rgb(0, 0, 0)" stroke="rgb(204, 204, 204)" stroke-width="1px"></line><line x1="51.5625" y1="38.142857142857025" x2="46.5625" y2="38.142857142857025" style="visibility: inherit;" fill="rgb(0, 0, 0)" stroke="rgb(204, 204, 204)" stroke-width="1px"></line><line x1="51.5625" y1="25.428571428571455" x2="46.5625" y2="25.428571428571455" style="visibility: inherit;" fill="rgb(0, 0, 0)" stroke="rgb(204, 204, 204)" stroke-width="1px"></line><line x1="51.5625" y1="12.714285714285728" x2="46.5625" y2="12.714285714285728" style="visibility: inherit;" fill="rgb(0, 0, 0)" stroke="rgb(204, 204, 204)" stroke-width="1px"></line><line x1="51.5625" y1="0" x2="46.5625" y2="0" style="visibility: inherit;" fill="rgb(0, 0, 0)" stroke="rgb(204, 204, 204)" stroke-width="1px"></line></g><g transform="translate(41.5625, 0)"><text x="0" y="178" dx="0em" dy="0.3em" style="text-anchor: end; visibility: hidden; font-family: Roboto, sans-serif; font-size: 12px; font-weight: 200;" fill="rgb(50, 49, 63)" stroke="none" stroke-width="1px">0.57</text><text x="0" y="165.28571428571428" dx="0em" dy="0.3em" style="text-anchor: end; visibility: inherit; font-family: Roboto, sans-serif; font-size: 12px; font-weight: 200;" fill="rgb(50, 49, 63)" stroke="none" stroke-width="1px">0.58</text><text x="0" y="152.57142857142856" dx="0em" dy="0.3em" style="text-anchor: end; visibility: hidden; font-family: Roboto, sans-serif; font-size: 12px; font-weight: 200;" fill="rgb(50, 49, 63)" stroke="none" stroke-width="1px">0.59</text><text x="0" y="139.85714285714283" dx="0em" dy="0.3em" style="text-anchor: end; visibility: inherit; font-family: Roboto, sans-serif; font-size: 12px; font-weight: 200;" fill="rgb(50, 49, 63)" stroke="none" stroke-width="1px">0.6</text><text x="0" y="127.14285714285711" dx="0em" dy="0.3em" style="text-anchor: end; visibility: hidden; font-family: Roboto, sans-serif; font-size: 12px; font-weight: 200;" fill="rgb(50, 49, 63)" stroke="none" stroke-width="1px">0.61</text><text x="0" y="114.42857142857137" dx="0em" dy="0.3em" style="text-anchor: end; visibility: inherit; font-family: Roboto, sans-serif; font-size: 12px; font-weight: 200;" fill="rgb(50, 49, 63)" stroke="none" stroke-width="1px">0.62</text><text x="0" y="101.71428571428565" dx="0em" dy="0.3em" style="text-anchor: end; visibility: hidden; font-family: Roboto, sans-serif; font-size: 12px; font-weight: 200;" fill="rgb(50, 49, 63)" stroke="none" stroke-width="1px">0.63</text><text x="0" y="88.99999999999991" dx="0em" dy="0.3em" style="text-anchor: end; visibility: inherit; font-family: Roboto, sans-serif; font-size: 12px; font-weight: 200;" fill="rgb(50, 49, 63)" stroke="none" stroke-width="1px">0.64</text><text x="0" y="76.2857142857142" dx="0em" dy="0.3em" style="text-anchor: end; visibility: hidden; font-family: Roboto, sans-serif; font-size: 12px; font-weight: 200;" fill="rgb(50, 49, 63)" stroke="none" stroke-width="1px">0.65</text><text x="0" y="63.571428571428484" dx="0em" dy="0.3em" style="text-anchor: end; visibility: inherit; font-family: Roboto, sans-serif; font-size: 12px; font-weight: 200;" fill="rgb(50, 49, 63)" stroke="none" stroke-width="1px">0.66</text><text x="0" y="50.857142857142755" dx="0em" dy="0.3em" style="text-anchor: end; visibility: hidden; font-family: Roboto, sans-serif; font-size: 12px; font-weight: 200;" fill="rgb(50, 49, 63)" stroke="none" stroke-width="1px">0.67</text><text x="0" y="38.142857142857025" dx="0em" dy="0.3em" style="text-anchor: end; visibility: inherit; font-family: Roboto, sans-serif; font-size: 12px; font-weight: 200;" fill="rgb(50, 49, 63)" stroke="none" stroke-width="1px">0.68</text><text x="0" y="25.428571428571455" dx="0em" dy="0.3em" style="text-anchor: end; visibility: hidden; font-family: Roboto, sans-serif; font-size: 12px; font-weight: 200;" fill="rgb(50, 49, 63)" stroke="none" stroke-width="1px">0.69</text><text x="0" y="12.714285714285728" dx="0em" dy="0.3em" style="text-anchor: end; visibility: inherit; font-family: Roboto, sans-serif; font-size: 12px; font-weight: 200;" fill="rgb(50, 49, 63)" stroke="none" stroke-width="1px">0.7</text><text x="0" y="0" dx="0em" dy="0.3em" style="text-anchor: end; visibility: hidden; font-family: Roboto, sans-serif; font-size: 12px; font-weight: 200;" fill="rgb(50, 49, 63)" stroke="none" stroke-width="1px">0.71</text></g><line x1="51.5625" y1="0" x2="51.5625" y2="178" fill="rgb(0, 0, 0)" stroke="rgb(204, 204, 204)" stroke-width="1px"></line></g></g><g transform="translate(51, 0)" clip-path="url(#clip_0)"><clipPath id="clip_0"><rect width="278" height="177"></rect></clipPath><g><g><g><line x1="0" y1="0" x2="0" y2="178" fill="rgb(0, 0, 0)" stroke="rgb(60, 60, 60)" stroke-width="1px" opacity="0.25"></line><line x1="19.888392857142858" y1="0" x2="19.888392857142858" y2="178" fill="rgb(0, 0, 0)" stroke="rgb(60, 60, 60)" stroke-width="1px" opacity="0.25"></line><line x1="39.776785714285715" y1="0" x2="39.776785714285715" y2="178" fill="rgb(0, 0, 0)" stroke="rgb(60, 60, 60)" stroke-width="1px" opacity="0.25"></line><line x1="59.66517857142857" y1="0" x2="59.66517857142857" y2="178" fill="rgb(0, 0, 0)" stroke="rgb(60, 60, 60)" stroke-width="1px" opacity="0.25"></line><line x1="79.55357142857143" y1="0" x2="79.55357142857143" y2="178" fill="rgb(0, 0, 0)" stroke="rgb(60, 60, 60)" stroke-width="1px" opacity="0.25"></line><line x1="99.44196428571429" y1="0" x2="99.44196428571429" y2="178" fill="rgb(0, 0, 0)" stroke="rgb(60, 60, 60)" stroke-width="1px" opacity="0.25"></line><line x1="119.33035714285714" y1="0" x2="119.33035714285714" y2="178" fill="rgb(0, 0, 0)" stroke="rgb(60, 60, 60)" stroke-width="1px" opacity="0.25"></line><line x1="139.21875" y1="0" x2="139.21875" y2="178" fill="rgb(0, 0, 0)" stroke="rgb(60, 60, 60)" stroke-width="1px" opacity="0.25"></line><line x1="159.10714285714286" y1="0" x2="159.10714285714286" y2="178" fill="rgb(0, 0, 0)" stroke="rgb(60, 60, 60)" stroke-width="1px" opacity="0.25"></line><line x1="178.99553571428572" y1="0" x2="178.99553571428572" y2="178" fill="rgb(0, 0, 0)" stroke="rgb(60, 60, 60)" stroke-width="1px" opacity="0.25"></line><line x1="198.88392857142858" y1="0" x2="198.88392857142858" y2="178" fill="rgb(0, 0, 0)" stroke="rgb(60, 60, 60)" stroke-width="1px" opacity="0.25"></line><line x1="218.77232142857142" y1="0" x2="218.77232142857142" y2="178" fill="rgb(0, 0, 0)" stroke="rgb(60, 60, 60)" stroke-width="1px" opacity="0.25"></line><line x1="238.66071428571428" y1="0" x2="238.66071428571428" y2="178" fill="rgb(0, 0, 0)" stroke="rgb(60, 60, 60)" stroke-width="1px" opacity="0.25"></line><line x1="258.54910714285717" y1="0" x2="258.54910714285717" y2="178" fill="rgb(0, 0, 0)" stroke="rgb(60, 60, 60)" stroke-width="1px" opacity="0.25"></line><line x1="278.4375" y1="0" x2="278.4375" y2="178" fill="rgb(0, 0, 0)" stroke="rgb(60, 60, 60)" stroke-width="1px" opacity="0.25"></line></g><g><line x1="0" y1="178" x2="278.4375" y2="178" fill="rgb(0, 0, 0)" stroke="rgb(60, 60, 60)" stroke-width="1px" opacity="0.25"></line><line x1="0" y1="165.28571428571428" x2="278.4375" y2="165.28571428571428" fill="rgb(0, 0, 0)" stroke="rgb(60, 60, 60)" stroke-width="1px" opacity="0.25"></line><line x1="0" y1="152.57142857142856" x2="278.4375" y2="152.57142857142856" fill="rgb(0, 0, 0)" stroke="rgb(60, 60, 60)" stroke-width="1px" opacity="0.25"></line><line x1="0" y1="139.85714285714283" x2="278.4375" y2="139.85714285714283" fill="rgb(0, 0, 0)" stroke="rgb(60, 60, 60)" stroke-width="1px" opacity="0.25"></line><line x1="0" y1="127.14285714285711" x2="278.4375" y2="127.14285714285711" fill="rgb(0, 0, 0)" stroke="rgb(60, 60, 60)" stroke-width="1px" opacity="0.25"></line><line x1="0" y1="114.42857142857137" x2="278.4375" y2="114.42857142857137" fill="rgb(0, 0, 0)" stroke="rgb(60, 60, 60)" stroke-width="1px" opacity="0.25"></line><line x1="0" y1="101.71428571428565" x2="278.4375" y2="101.71428571428565" fill="rgb(0, 0, 0)" stroke="rgb(60, 60, 60)" stroke-width="1px" opacity="0.25"></line><line x1="0" y1="88.99999999999991" x2="278.4375" y2="88.99999999999991" fill="rgb(0, 0, 0)" stroke="rgb(60, 60, 60)" stroke-width="1px" opacity="0.25"></line><line x1="0" y1="76.2857142857142" x2="278.4375" y2="76.2857142857142" fill="rgb(0, 0, 0)" stroke="rgb(60, 60, 60)" stroke-width="1px" opacity="0.25"></line><line x1="0" y1="63.571428571428484" x2="278.4375" y2="63.571428571428484" fill="rgb(0, 0, 0)" stroke="rgb(60, 60, 60)" stroke-width="1px" opacity="0.25"></line><line x1="0" y1="50.857142857142755" x2="278.4375" y2="50.857142857142755" fill="rgb(0, 0, 0)" stroke="rgb(60, 60, 60)" stroke-width="1px" opacity="0.25"></line><line x1="0" y1="38.142857142857025" x2="278.4375" y2="38.142857142857025" fill="rgb(0, 0, 0)" stroke="rgb(60, 60, 60)" stroke-width="1px" opacity="0.25"></line><line x1="0" y1="25.428571428571455" x2="278.4375" y2="25.428571428571455" fill="rgb(0, 0, 0)" stroke="rgb(60, 60, 60)" stroke-width="1px" opacity="0.25"></line><line x1="0" y1="12.714285714285728" x2="278.4375" y2="12.714285714285728" fill="rgb(0, 0, 0)" stroke="rgb(60, 60, 60)" stroke-width="1px" opacity="0.25"></line><line x1="0" y1="0" x2="278.4375" y2="0" fill="rgb(0, 0, 0)" stroke="rgb(60, 60, 60)" stroke-width="1px" opacity="0.25"></line></g></g></g><g><g><line x1="0" y1="902.7142857142856" x2="278.4375" y2="902.7142857142856" fill="rgb(0, 0, 0)" stroke="rgb(153, 153, 153)" stroke-width="1.5px"></line></g></g><g><g><line x1="19.888392857142858" y1="0" x2="19.888392857142858" y2="178" fill="rgb(0, 0, 0)" stroke="rgb(153, 153, 153)" stroke-width="1.5px"></line></g></g><g><g><g><g><g><path style="fill: none;" stroke="rgb(0, 119, 187)" stroke-width="2px" d="M28.838169642857146,178.07124812635954L29.832589285714285,164.76271900515255L30.827008928571427,155.27644834675218L31.82142857142857,150.6285503835927L32.815848214285715,142.33313672389238L33.810267857142854,135.9292307638407L34.8046875,130.00834694305854L35.79910714285714,124.6343891243101L36.793526785714285,120.22383484450074L37.78794642857142,115.78610790549831L38.78236607142857,112.60090454887963L39.776785714285715,109.15166994940266L40.77120535714286,106.29750960576948L41.765625,103.87861260020644L42.760044642857146,101.23921498745017L43.754464285714285,99.01463989195116L44.74888392857143,96.71551247711615L45.74330357142857,94.59021132616796L46.73772321428571,93.375143178615L47.732142857142854,91.05947796940038L48.7265625,88.47379823731842L49.720982142857146,86.54535489171117L50.715401785714285,84.93359072172544L51.70982142857143,83.28988058734603L52.70424107142857,81.31517075907786L53.698660714285715,79.80096145128441L54.693080357142854,78.99249982135092L55.6875,77.51296736880943L56.681919642857146,75.79184656065546L57.67633928571429,74.411602706093L58.67075892857143,73.1497651656047L59.66517857142857,71.99549884224187L60.659598214285715,70.42870580254642L61.654017857142854,69.39250676064749L62.6484375,68.38896202479005L63.64285714285714,66.91002531380231L64.63727678571429,65.47414558326362L65.63169642857143,64.59561202894596L66.62611607142857,63.133874717574464L67.62053571428571,62.40536710555483L68.61495535714286,61.39222043117132L69.609375,60.25594270017758L70.60379464285714,59.120902492748925L71.59821428571428,58.35257629658601L72.59263392857143,57.544585157070685L73.58705357142857,57.08955805475673L74.58147321428571,56.25583817518241L75.57589285714285,55.398425583920485L76.5703125,54.51685462970138L77.56473214285714,53.897214904895826L78.55915178571429,53.13451179336641L79.55357142857143,52.17429674974326L80.54799107142858,51.97262692211251L81.54241071428572,51.00203642701002L82.53683035714286,50.29636795366181L83.53125,49.30319959888339L84.52566964285714,48.977995634748474L85.52008928571429,48.066541569975264L86.51450892857143,47.93014043423363L87.50892857142857,47.17446720001516L88.50334821428571,46.91382502128561L89.49776785714286,46.26421332211923L90.4921875,45.784567607267576L91.48660714285714,45.57474577850672L92.48102678571428,45.062480387505516L93.47544642857142,44.27035214917295L94.46986607142857,43.79904623790714L95.46428571428571,43.250931082239234L96.45870535714286,42.678859030050255L97.453125,42.15076578718377L98.44754464285715,41.566304741104766L99.44196428571429,41.28650042028108L100.43638392857143,40.20015759491589L101.43080357142857,39.70513187013832L102.42522321428572,39.4767152506448L103.41964285714286,39.063845296147605L104.4140625,38.25257026264518L105.40848214285714,38.091793603357374L106.40290178571428,37.61319916474791L107.39732142857143,37.64524070126301L108.39174107142857,37.244627535272876L109.38616071428571,36.82623009847785L110.38058035714285,36.623965606323516L111.375,36.353769004057206L112.36941964285714,36.21462846295936L113.36383928571429,35.78757411026803L114.35825892857143,35.43039847824138L115.35267857142858,35.19114531950625L116.34709821428572,34.72133224447725L117.34151785714286,34.539235517536866L118.3359375,34.703523972723L119.33035714285714,34.02310793516056L120.32477678571429,33.54425882477331L121.31919642857143,33.58748470225619L122.31361607142857,33.031163911607266L123.30803571428571,32.50858070715023L124.30245535714286,32.551635496826094L125.296875,32.22907854072353L126.29129464285714,32.0134157169417L127.28571428571428,31.683617329596537L128.28013392857142,31.30401054722867L129.27455357142858,31.142602114949433L130.26897321428572,30.839960609462985L131.26339285714286,30.790177583874144L132.2578125,30.898930120575873L133.25223214285714,30.621733203679973L134.24665178571428,29.899228105038826L135.24107142857142,29.357446226361144L136.23549107142856,29.267395488720144L137.22991071428572,29.062526466685366L138.22433035714286,29.091838041004454L139.21875,29.15168161335997L140.21316964285714,28.788999235633348L141.20758928571428,28.500244683199536L142.20200892857142,28.446911047459892L143.19642857142856,28.200596405261628L144.19084821428572,28.011430075539593L145.18526785714286,28.020941321799892L146.1796875,27.390252342670973L147.17410714285714,27.44613644871946L148.16852678571428,27.269596302302272L149.16294642857142,27.076067010551007L150.15736607142856,26.67903683184944L151.1517857142857,26.28973763942332L152.14620535714283,26.306181557108005L153.140625,25.983815023720602L154.13504464285714,25.748714427091645L155.12946428571428,25.620688753431647L156.12388392857142,25.381455119996303L157.11830357142858,25.172408072935113L158.11272321428572,24.981806423111163L159.10714285714286,25.255242448270693L160.1015625,25.211506944770722L161.09598214285717,24.77506715852229L162.0904017857143,24.417686332623816L163.08482142857144,24.547373503065533L164.07924107142858,24.31647597954224L165.07366071428572,23.919123198678577L166.06808035714286,23.642729066323763L167.0625,23.589718389305094L168.05691964285714,23.484796498038765L169.05133928571428,23.281523470940584L170.04575892857144,23.10654183405092L171.04017857142858,23.039535315753895L172.03459821428572,22.58091803818541L173.02901785714286,22.75053353906281L174.0234375,22.41573185461279L175.01785714285714,22.25622838834577L176.01227678571428,22.257771116237606L177.00669642857142,21.968144545570823L178.00111607142856,21.88251944501999L178.99553571428572,21.68033611845859L179.98995535714286,21.730235185370493L180.984375,21.653017395140335L181.97879464285714,21.273605066862306L182.97321428571428,21.144324066663266L183.96763392857142,21.37858755392445L184.96205357142856,21.223470504810415L185.9564732142857,20.9016567221802L186.95089285714283,21.00451641304692L187.9453125,21.038162186455544L188.93973214285714,20.90102404211111L189.93415178571428,20.7277408710369L190.92857142857142,20.55232271040112L191.92299107142858,20.452467567062786L192.91741071428572,20.191274704622764L193.91183035714286,19.850012107799152L194.90625,19.827831069807264L195.90066964285717,20.32845276775188L196.8950892857143,20.02162168986085L197.88950892857144,19.637395169024323L198.88392857142858,20.3088897245094L199.87834821428572,19.94610485041787L200.87276785714286,20.110835187973684L201.8671875,19.894749354753653L202.86160714285714,19.556179147110356L203.85602678571428,19.743653166977115L204.85044642857144,19.263968839033332L205.84486607142858,19.214268580205573L206.83928571428572,19.10451246550174L207.83370535714286,18.96439140928926L208.828125,18.756155829133313L209.82254464285714,18.82849291252333L210.81696428571428,18.66809938891503L211.81138392857142,18.41026350243301L212.80580357142856,18.2731436377626L213.80022321428572,17.860609194219304L214.79464285714286,17.875873826577052L215.7890625,17.788939700674728L216.78348214285714,17.767395576669685L217.77790178571428,17.648736593198656L218.77232142857142,17.81510590310639L219.76674107142856,17.773455694377525L220.7611607142857,17.840587442723415L221.75558035714283,17.596831626487734L222.75,17.522299213711868L223.74441964285714,17.368149044218367L224.73883928571428,17.17759567794791L225.73325892857142,17.048501120365657L226.72767857142858,16.82281274322938L227.72209821428572,17.100417330494878L228.71651785714286,16.945508391722594L229.7109375,16.908399978488767L230.70535714285717,16.80762369245039L231.6997767857143,16.89060007475814L232.69419642857144,16.771723151718696L233.68861607142858,16.475321344273794L234.68303571428572,16.330339789574797L235.67745535714286,16.315375065914058L236.671875,16.62614006934664L237.66629464285714,16.617018180205754L238.66071428571428,16.774236094934704L239.65513392857144,16.32259545018688L240.64955357142858,16.474571412829693L241.64397321428572,16.344349236334732L242.63839285714286,16.2407225129704L243.6328125,16.141109653063335L244.62723214285714,16.02010923404641L245.62165178571428,16.162945032506357L246.61607142857142,15.874460132013368L247.61049107142856,15.543194813186219L248.60491071428572,16.025361467989857L249.59933035714286,15.677962601793414L250.59375,15.726640008542208L251.58816964285714,15.583212668433632L252.58258928571428,15.360807403764076L253.57700892857142,15.262800398374175L254.57142857142856,15.374356487847475L255.5658482142857,15.481818915792944L256.56026785714283,15.40994751195571L257.5546875,15.067754447616142L258.54910714285717,14.99342202979319L259.5435267857143,14.845636380456208L260.53794642857144,14.794644322497103L261.53236607142856,15.003887279162935L262.5267857142857,14.84169997515938L263.52120535714283,14.85239359327608L264.515625,14.607361609696518L265.51004464285717,14.583656595835881L266.5044642857143,14.52547941947222L267.49888392857144,14.592637723181612" fill="none"></path></g><g><path style="fill: none;" stroke="rgb(255, 112, 67)" stroke-width="2px" d="M29.832589285714285,186.2853338923195L30.827008928571427,174.9161808653625L31.82142857142857,165.7089997755457L32.815848214285715,157.88077512885283L33.810267857142854,151.36259994905342L34.8046875,145.97304463596666L35.79910714285714,140.60829824435817L36.793526785714285,135.41947224751226L37.78794642857142,131.2988411207185L38.78236607142857,127.04768745969976L39.776785714285715,123.71884638718927L40.77120535714286,119.91177452454671L41.765625,116.82674252425839L42.760044642857146,114.01277431499487L43.754464285714285,111.55038197973684L44.74888392857143,109.09683341786774L45.74330357142857,106.82249710159961L46.73772321428571,104.53931475176282L47.732142857142854,102.85869562644974L48.7265625,100.57295551528837L49.720982142857146,97.97382622576131L50.715401785714285,95.85291769255896L51.70982142857143,93.69771231769121L52.70424107142857,92.05777560619755L53.698660714285715,90.31004172167864L54.693080357142854,88.74216627071547L55.6875,86.84133040829768L56.681919642857146,85.21193729499772L57.67633928571429,84.2624320985031L58.67075892857143,82.45037199874923L59.66517857142857,80.78288029531988L60.659598214285715,78.91945885866808L61.654017857142854,77.66890691546496L62.6484375,76.48276259520559L63.64285714285714,74.85688993414273L64.63727678571429,73.9686684093265L65.63169642857143,72.56016846693869L66.62611607142857,71.31017483076734L67.62053571428571,70.43895608492859L68.61495535714286,69.87418040220372L69.609375,68.68342258937388L70.60379464285714,67.56283138892199L71.59821428571428,66.67188804397077L72.59263392857143,65.22722825266791L73.58705357142857,64.4265151960548L74.58147321428571,63.727316858089175L75.57589285714285,62.99448042018169L76.5703125,62.0975339568686L77.56473214285714,61.1960924582754L78.55915178571429,60.34242544872005L79.55357142857143,59.60572554053336L80.54799107142858,58.82974485812034L81.54241071428572,57.711058137929456L82.53683035714286,56.98685859840355L83.53125,56.371156762675476L84.52566964285714,55.701907608717875L85.52008928571429,55.146245709203974L86.51450892857143,54.64445863604562L87.50892857142857,53.96128826233315L88.50334821428571,53.24279746519479L89.49776785714286,52.74343761695165L90.4921875,51.94198636178384L91.48660714285714,51.327585877477674L92.48102678571428,50.46462791906916L93.47544642857142,49.64590350238754L94.46986607142857,49.182375134857914L95.46428571428571,48.758269649984754L96.45870535714286,48.36672998119212L97.453125,48.167181706889814L98.44754464285715,47.4619832239194L99.44196428571429,46.98587662672575L100.43638392857143,46.76017221626971L101.43080357142857,46.07671687749569L102.42522321428572,45.471699360636876L103.41964285714286,44.765300701805224L104.4140625,44.50354629033273L105.40848214285714,44.192017477677645L106.40290178571428,43.80851896264591L107.39732142857143,43.24251907008805L108.39174107142857,42.44100629820602L109.38616071428571,42.223065812876584L110.38058035714285,41.997966783083875L111.375,41.63704356788406L112.36941964285714,41.208569922337865L113.36383928571429,40.92026311908693L114.35825892857143,40.76570947449696L115.35267857142858,40.455055553886744L116.34709821428572,40.38315623097881L117.34151785714286,39.83202770748546L118.3359375,39.25711698514359L119.33035714285714,39.02090406952154L120.32477678571429,38.516387711052296L121.31919642857143,38.28257984353732L122.31361607142857,38.09321802091209L123.30803571428571,37.62739163179155L124.30245535714286,37.16286390745018L125.296875,36.61936130188496L126.29129464285714,36.28840962345102L127.28571428571428,36.320976913880365L128.28013392857142,36.43903525100251L129.27455357142858,35.28079046179792L130.26897321428572,35.00931926249571L131.26339285714286,34.762014227044325L132.2578125,33.948195414757876L133.25223214285714,33.70019701711717L134.24665178571428,33.60544644862124L135.24107142857142,33.258498598412054L136.23549107142856,33.003526277621084L137.22991071428572,33.067009584474135L138.22433035714286,33.06851151283912L139.21875,32.66958130672503L140.21316964285714,32.49536629142472L141.20758928571428,32.15330289547342L142.20200892857142,31.802197646424435L143.19642857142856,31.592413580355927L144.19084821428572,31.242528449770738L145.18526785714286,30.93259406080737L146.1796875,30.408913850729984L147.17410714285714,30.444156517268706L148.16852678571428,30.04243270735833L149.16294642857142,29.850445210308884L150.15736607142856,29.47067893365425L151.1517857142857,29.33572918494753L152.14620535714283,29.005887804918235L153.140625,28.89619444518852L154.13504464285714,28.473955596316618L155.12946428571428,28.615745101128464L156.12388392857142,28.648740693184347L157.11830357142858,28.438581966482605L158.11272321428572,28.13579097491169L159.10714285714286,27.703031984151743L160.1015625,27.65150715370416L161.09598214285717,27.05788796477327L162.0904017857143,27.307829272176292L163.08482142857144,26.755406451223468L164.07924107142858,26.681524183408513L165.07366071428572,26.868636252402588L166.06808035714286,26.292187150328036L167.0625,25.85498395920309L168.05691964285714,25.92598620442298L169.05133928571428,25.699800235641174L170.04575892857144,25.1701077425722L171.04017857142858,25.460739185381765L172.03459821428572,24.77313134583243L173.02901785714286,24.73954251032786L174.0234375,24.293700669792667L175.01785714285714,24.29261845027646L176.01227678571428,24.249924683338218L177.00669642857142,24.044702598568424L178.00111607142856,24.280538491165323L178.99553571428572,23.911110714698733L179.98995535714286,23.490447763832428L180.984375,23.56458399207457L181.97879464285714,23.114990566949693L182.97321428571428,23.528342909767368L183.96763392857142,23.445455213110662L184.96205357142856,23.004287993741563L185.9564732142857,23.019651495629354L186.95089285714283,22.65583511952821L187.9453125,22.61475637414617L188.93973214285714,22.272608467519273L189.93415178571428,22.26014211178328L190.92857142857142,22.057536105431534L191.92299107142858,21.800017712867398L192.91741071428572,21.498487563515802L193.91183035714286,21.45794999268175L194.90625,20.82284639364115L195.90066964285717,20.94010324699484L196.8950892857143,21.165539789165443L197.88950892857144,21.163482830844337L198.88392857142858,20.678025290067932L199.87834821428572,20.721166201393153L200.87276785714286,20.72731684239613L201.8671875,20.316140507070813L202.86160714285714,20.280717844695754L203.85602678571428,19.825985210667064L204.85044642857144,19.92187563033709L205.84486607142858,19.889682752883992L206.83928571428572,20.14482291434274L207.83370535714286,19.765515939898528L208.828125,19.714627510781952L209.82254464285714,19.4006658524557L210.81696428571428,19.072090217998937L211.81138392857142,19.049033656011222L212.80580357142856,19.052417627405255L213.80022321428572,19.07493974651763L214.79464285714286,19.292733803136823L215.7890625,18.99708512026976L216.78348214285714,18.729483769785016L217.77790178571428,18.758683712580744L218.77232142857142,18.616453012320918L219.76674107142856,18.517716149215502L220.7611607142857,18.605462831946102L221.75558035714283,18.67854195142159L222.75,18.245532169623452L223.74441964285714,18.2805526718738L224.73883928571428,18.04044690180419L225.73325892857142,18.113668596012396L226.72767857142858,17.513051629649013L227.72209821428572,17.472425287459934L228.71651785714286,17.531804907191056L229.7109375,17.359483994337218L230.70535714285717,17.20759029567628L231.6997767857143,17.154951865045234L232.69419642857144,16.912146294285172L233.68861607142858,16.571306445699623L234.68303571428572,16.607125739498674L235.67745535714286,16.52488547918676L236.671875,16.557538581322255L237.66629464285714,16.545725947364353L238.66071428571428,16.713575955817422L239.65513392857144,16.42833805221533L240.64955357142858,16.359896497187936L241.64397321428572,15.918121117677508L242.63839285714286,16.196056588060845L243.6328125,16.162659682969604L244.62723214285714,15.561123053259694L245.62165178571428,15.576175934943958L246.61607142857142,15.978279179174042L247.61049107142856,15.771542057043124L248.60491071428572,15.329514112857451L249.59933035714286,15.782660018334399L250.59375,15.703520481629623L251.58816964285714,15.467670414609941L252.58258928571428,15.590188514874864L253.57700892857142,15.468664121781515L254.57142857142856,14.966120228178381L255.5658482142857,14.598026062339514L256.56026785714283,14.64277399071875L257.5546875,14.534334849818858L258.54910714285717,14.341319266432496L259.5435267857143,14.73653016808359L260.53794642857144,14.545724991610232L261.53236607142856,14.23356938239118L262.5267857142857,14.213210915781167L263.52120535714283,14.60270661854732L264.515625,14.393224773413637L265.51004464285717,13.868068061832554L266.5044642857143,14.017857566726882L267.49888392857144,13.656458373305563" fill="none"></path></g></g></g></g><g opacity="0.2"><g><g><g><path style="fill: none;" stroke="rgb(0, 119, 187)" stroke-width="2px" d="M25.854910714285715,191.38246182032987L26.849330357142858,175.46877949578416L27.84375,166.1827794483729L28.838169642857146,156.20722944395877L29.832589285714285,144.92063270296362L30.827008928571427,141.0986662251608L31.82142857142857,143.67187963213232L32.815848214285715,129.9062678132738L33.810267857142854,126.33089937482556L34.8046875,121.13119707788735L35.79910714285714,116.57572647503439L36.793526785714285,113.60912326404019L37.78794642857142,109.1301935400281L38.78236607142857,107.82339065415512L39.776785714285715,103.97800721440991L40.77120535714286,102.01636300768166L41.765625,100.25031484876355L42.760044642857146,97.28014983449658L43.754464285714285,95.67779306003018L44.74888392857143,93.26683115959163L45.74330357142857,91.40226503780904L46.73772321428571,91.55254282270154L47.732142857142854,87.58598228863302L48.7265625,84.59528006826123L49.720982142857146,83.65269051279336L50.715401785714285,82.51594478743411L51.70982142857143,80.82431558200287L52.70424107142857,78.35310615812024L53.698660714285715,77.52964755467L54.693080357142854,77.77980739729739L55.6875,75.29366871288839L56.681919642857146,73.21016536440163L57.67633928571429,72.34123693193703L58.67075892857143,71.25700885908938L59.66517857142857,70.26409935951227L60.659598214285715,68.07851624488825L61.654017857142854,67.8382081985473L62.6484375,66.88364492143899L63.64285714285714,64.69162024770459L64.63727678571429,63.32032598767957L65.63169642857143,63.27781169755114L66.62611607142857,60.9412687505994L67.62053571428571,61.31260568755008L68.61495535714286,59.87250041961664L69.609375,58.551526103700866L70.60379464285714,57.41834218161441L71.59821428571428,57.20008700234545L72.59263392857143,56.332598447799626L73.58705357142857,56.40701740128649L74.58147321428571,55.00525835582184L75.57589285714285,54.112306697027975L76.5703125,53.194498198372926L77.56473214285714,52.96775531768793L78.55915178571429,51.99045712607242L79.55357142857143,50.733974184308686L80.54799107142858,51.6701221806662L81.54241071428572,49.54615068435663L82.53683035714286,49.23786524363922L83.53125,47.81344706671573L84.52566964285714,48.490189688546266L85.52008928571429,46.69936047281533L86.51450892857143,47.72553873062128L87.50892857142857,46.04095734868726L88.50334821428571,46.52286175319122L89.49776785714286,45.289795773369875L90.4921875,45.06509903499054L91.48660714285714,45.26001303536547L92.48102678571428,44.29408230100354L93.47544642857142,43.08215979167389L94.46986607142857,43.09208737100869L95.46428571428571,42.4287583487374L96.45870535714286,41.820750951766925L97.453125,41.358625922884215L98.44754464285715,40.68961317198612L99.44196428571429,40.86679393904544L100.43638392857143,38.57064335686815L101.43080357142857,38.962593282972016L102.42522321428572,39.13409032140454L103.41964285714286,38.44454036440163L104.4140625,37.03565771239139L105.40848214285714,37.85062861442562L106.40290178571428,36.89530750683371L107.39732142857143,37.69330300603589L108.39174107142857,36.643707786287536L109.38616071428571,36.198633943285216L110.38058035714285,36.320568868092074L111.375,35.948474100657826L112.36941964285714,36.00591765131264L113.36383928571429,35.1469925812312L114.35825892857143,34.89463503020145L115.35267857142858,34.83226558140341L116.34709821428572,34.01661263193398L117.34151785714286,34.26609042712616L118.3359375,34.94995665550228L119.33035714285714,33.00248387881683L120.32477678571429,32.82598515919272L121.31919642857143,33.65232351848053L122.31361607142857,32.19668272563385L123.30803571428571,31.724705900464688L124.30245535714286,32.616217681339755L125.296875,31.745243106569514L126.29129464285714,31.6899214812687L127.28571428571428,31.1889197485787L128.28013392857142,30.734600373676788L129.27455357142858,30.900489466530882L130.26897321428572,30.3859983512333L131.26339285714286,30.715503045490752L132.2578125,31.062058925628623L133.25223214285714,30.205937828336392L134.24665178571428,28.815470457076987L135.24107142857142,28.544773408344756L136.23549107142856,29.132319382258782L137.22991071428572,28.755222933632933L138.22433035714286,29.13580540248321L139.21875,29.24144697189327L140.21316964285714,28.24497566904336L141.20758928571428,28.06711285454882L142.20200892857142,28.366910593850218L143.19642857142856,27.83112444196423L144.19084821428572,27.72768058095654L145.18526785714286,28.035208191190396L146.1796875,26.444218873977622L147.17410714285714,27.52996260779239L148.16852678571428,27.00478608267642L149.16294642857142,26.785773072923885L150.15736607142856,26.083491563796958L151.1517857142857,25.705788850784263L152.14620535714283,26.330847433635125L153.140625,25.500265223639307L154.13504464285714,25.396063532148037L155.12946428571428,25.428650242941675L156.12388392857142,25.02260466984335L157.11830357142858,24.85883750234326L158.11272321428572,24.695903948375115L159.10714285714286,25.665396486009822L160.1015625,25.145903689520654L161.09598214285717,24.1204074791499L162.0904017857143,23.881615093776116L163.08482142857144,24.74190425872799L164.07924107142858,23.970129694257412L165.07366071428572,23.323094027382933L166.06808035714286,23.228137867791258L167.0625,23.510202373777066L168.05691964285714,23.327413661139307L169.05133928571428,22.97661393029345L170.04575892857144,22.84406937871655L171.04017857142858,22.939025538308226L172.03459821428572,21.892992121832666L173.02901785714286,23.004956790379058L174.0234375,21.913529327937493L175.01785714285714,22.016973188945183L176.01227678571428,22.260085208075342L177.00669642857142,21.533704689570794L178.00111607142856,21.754081794193755L178.99553571428572,21.377061128616294L179.98995535714286,21.805083785738216L180.984375,21.537190709795222L181.97879464285714,20.7044865744454L182.97321428571428,20.950402566364776L183.96763392857142,21.729982784816155L184.96205357142856,20.990794931139217L185.9564732142857,20.418936048235164L186.95089285714283,21.158805949347315L187.9453125,21.088630846568474L188.93973214285714,20.695316825594173L189.93415178571428,20.46781611442562L190.92857142857142,20.289195469447503L191.92299107142858,20.302684852055084L192.91741071428572,19.799485410962735L193.91183035714286,19.338118212563597L194.90625,19.794559512819514L195.90066964285717,21.07938531466888L196.8950892857143,19.561375073024163L197.88950892857144,19.061055387769375L198.88392857142858,21.316131557737027L199.87834821428572,19.401927539280425L200.87276785714286,20.35793069430755L201.8671875,19.570620604923736L202.86160714285714,19.048323835645352L203.85602678571428,20.024864196777305L204.85044642857144,18.54444234711779L205.84486607142858,19.13971819196423L206.83928571428572,18.939878293446075L207.83370535714286,18.754209824970733L208.828125,18.443802458899317L209.82254464285714,18.936998537608513L210.81696428571428,18.427509103502498L211.81138392857142,18.02350967270983L212.80580357142856,18.067463840757046L213.80022321428572,17.24180752890445L214.79464285714286,17.898770775113736L215.7890625,17.65853851182116L216.78348214285714,17.735079390662012L217.77790178571428,17.470748117991814L218.77232142857142,18.06465986796783L219.76674107142856,17.71098038128439L220.7611607142857,17.94128506524218L221.75558035714283,17.23119790213443L222.75,17.41050059454776L223.74441964285714,17.13692378997799L224.73883928571428,16.89176562854217L225.73325892857142,16.85485928399218L226.72767857142858,16.484280177525054L227.72209821428572,17.516824211393033L228.71651785714286,16.713144983564053L229.7109375,16.852737358638176L230.70535714285717,16.656459263392815L231.6997767857143,17.015064648219475L232.69419642857144,16.593407767159544L233.68861607142858,16.03071863310672L234.68303571428572,16.112867457526026L235.67745535714286,16.292927980422935L236.671875,17.09228757449554L237.66629464285714,16.60333534649435L238.66071428571428,17.01006296702789L239.65513392857144,15.645134483064876L240.64955357142858,16.702535356794034L241.64397321428572,16.149015971592437L242.63839285714286,16.085282427923975L243.6328125,15.991690363202725L244.62723214285714,15.83860860552102L245.62165178571428,16.377198730196223L246.61607142857142,15.441732781273924L247.61049107142856,15.04629683494564L248.60491071428572,16.748611450195273L249.59933035714286,15.1568643024989L250.59375,15.799656118665371L251.58816964285714,15.368071658270654L252.58258928571428,15.027199506759604L253.57700892857142,15.115789890289268L254.57142857142856,15.541690622057185L255.5658482142857,15.643012557710872L256.56026785714283,15.302140406199822L257.5546875,14.554464851106868L258.54910714285717,14.881923403058682L259.5435267857143,14.623957906450496L260.53794642857144,14.718156235558592L261.53236607142856,15.317751714161407L262.5267857142857,14.598419019154104L263.52120535714283,14.86843402045108L264.515625,14.239813634327444L265.51004464285717,14.548099075044856L266.5044642857143,14.438213654926809L267.49888392857144,14.693375178745779" fill="none"></path></g><g><path style="fill: none;" stroke="rgb(255, 112, 67)" stroke-width="2px" d="M27.84375,184.2025484698159L28.838169642857146,173.5850402627672L29.832589285714285,166.05500922884252L30.827008928571427,157.92432175363805L31.82142857142857,151.92829118456152L32.815848214285715,146.15377446583335L33.810267857142854,141.59299904959536L34.8046875,137.89251279830927L35.79910714285714,132.56344883782518L36.793526785714285,127.63755069460183L37.78794642857142,125.11852216720575L38.78236607142857,120.67134554045535L39.776785714285715,118.72576733997884L40.77120535714286,114.20129200390402L41.765625,112.19925543240133L42.760044642857146,109.79185533523554L43.754464285714285,107.85681097848068L44.74888392857143,105.41652103832784L45.74330357142857,103.41099844660073L46.73772321428571,101.11454473223L47.732142857142854,100.33776848656784L48.7265625,97.14434661184033L49.720982142857146,94.07513315337039L50.715401785714285,92.67155531474515L51.70982142857143,90.46490451267782L52.70424107142857,89.59787065642215L53.698660714285715,87.68844097001205L54.693080357142854,86.39035313470016L55.6875,83.99007664407998L56.681919642857146,82.76784764017373L57.67633928571429,82.83817430904928L58.67075892857143,79.7322818551744L59.66517857142857,78.28164274351931L60.659598214285715,76.12432670593256L61.654017857142854,75.79307900156289L62.6484375,74.70354611533023L63.64285714285714,72.41808094297132L64.63727678571429,72.6363361222403L65.63169642857143,70.44741855348855L66.62611607142857,69.43518437658032L67.62053571428571,69.13212796619955L68.61495535714286,69.027016878128L69.609375,66.8972858701433L70.60379464285714,65.88194458825244L71.59821428571428,65.33547302654806L72.59263392857143,63.06023856571738L73.58705357142857,63.22544561113625L74.58147321428571,62.678519351141745L75.57589285714285,61.895225763320866L76.5703125,60.75211426189963L77.56473214285714,59.843930210385956L78.55915178571429,59.06192493438715L79.55357142857143,58.50067567825312L80.54799107142858,57.665773834500946L81.54241071428572,56.0330280576433L82.53683035714286,55.90055928911477L83.53125,55.447604009083285L84.52566964285714,54.698033877781405L85.52008928571429,54.312752859932985L86.51450892857143,53.89177802630829L87.50892857142857,52.93653270176474L88.50334821428571,52.16506126948761L89.49776785714286,51.994397844587006L90.4921875,50.739809479032196L91.48660714285714,50.40598515101837L92.48102678571428,49.170190981456166L93.47544642857142,48.417816877365055L94.46986607142857,48.48708258356362L95.46428571428571,48.12211142267495L96.45870535714286,47.77942047800332L97.453125,47.86785929543627L98.44754464285715,46.404185499463715L99.44196428571429,46.27171673093518L100.43638392857143,46.42161560058588L101.43080357142857,45.051533869334584L102.42522321428572,44.5641730853489L103.41964285714286,43.705702713557606L104.4140625,44.11091467312399L105.40848214285714,43.72472425869528L106.40290178571428,43.2332711900983L107.39732142857143,42.393519231251254L108.39174107142857,41.238737140382995L109.38616071428571,41.896155084882416L110.38058035714285,41.66031823839455L111.375,41.09565874508444L112.36941964285714,40.56585945401868L113.36383928571429,40.48780291421068L114.35825892857143,40.53387900761191L115.35267857142858,39.989074672971405L116.34709821428572,40.275307246616855L117.34151785714286,39.00533492224552L118.3359375,38.39475090163089L119.33035714285714,38.66658469608847L120.32477678571429,37.75961317334851L121.31919642857143,37.93186804226462L122.31361607142857,37.80917528697418L123.30803571428571,36.92865204811092L124.30245535714286,36.46607232093807L125.296875,35.8041073935372L126.29129464285714,35.79198210580004L127.28571428571428,36.36982784952431L128.28013392857142,36.616122756685485L129.27455357142858,33.54342327799111L130.26897321428572,34.60211246354235L131.26339285714286,34.39105667386731L132.2578125,32.72746719632825L133.25223214285714,33.32819942065643L134.24665178571428,33.46332059587746L135.24107142857142,32.73807682309827L136.23549107142856,32.62106779643463L137.22991071428572,33.162234544753986L138.22433035714286,33.07076440538674L139.21875,32.07118599755419L140.21316964285714,32.23404376847399L141.20758928571428,31.64020780154632L142.20200892857142,31.275539772851072L143.19642857142856,31.277737481253443L144.19084821428572,30.717700753893123L145.18526785714286,30.46769247736245L146.1796875,29.623393535613975L147.17410714285714,30.497020517076717L148.16852678571428,29.439846992492637L149.16294642857142,29.562463964734707L150.15736607142856,28.901029518672356L151.1517857142857,29.133304561887417L152.14620535714283,28.51112573487414L153.140625,28.731654405593833L154.13504464285714,27.840597323008904L155.12946428571428,28.828429358346067L156.12388392857142,28.69823408126827L157.11830357142858,28.123343876429924L158.11272321428572,27.681604487555322L159.10714285714286,27.053893498011956L160.1015625,27.574219908033047L161.09598214285717,26.167459181376824L162.0904017857143,27.68274123328067L163.08482142857144,25.926772219794092L164.07924107142858,26.57070078168591L165.07366071428572,27.149304355893765L166.06808035714286,25.427513497216307L167.0625,25.19917917251583L168.05691964285714,26.032489572252498L169.05133928571428,25.360521282468472L170.04575892857144,24.37556900296887L171.04017857142858,25.896686349596248L172.03459821428572,23.74171958650857L173.02901785714286,24.689159257071314L174.0234375,23.62493790898999L175.01785714285714,24.290995121002158L176.01227678571428,24.1858840329306L177.00669642857142,23.736869471413694L178.00111607142856,24.634292330060635L178.99553571428572,23.35696904999865L179.98995535714286,22.85945333753308L180.984375,23.675788334437737L181.97879464285714,22.440600429262386L182.97321428571428,24.14837142399374L183.96763392857142,23.32112366812564L184.96205357142856,22.34253716468807L185.9564732142857,23.042696748460994L186.95089285714283,22.110110555376277L187.9453125,22.55313825607296L188.93973214285714,21.759386607578765L189.93415178571428,22.24144257817944L190.92857142857142,21.75362709590362L191.92299107142858,21.413740124021206L192.91741071428572,21.046192339488396L193.91183035714286,21.397143636430965L194.90625,19.870190995080076L195.90066964285717,21.115988527025447L196.8950892857143,21.503694602421294L197.88950892857144,21.160397393362818L198.88392857142858,19.94983897890359L199.87834821428572,20.785877568381128L200.87276785714286,20.736542803900537L201.8671875,19.69937600408276L202.86160714285714,20.227583851133023L203.85602678571428,19.143886259623894L204.85044642857144,20.06571125984188L205.84486607142858,19.841393436704312L206.83928571428572,20.527533156531153L207.83370535714286,19.196555478232202L208.828125,19.638294867106804L209.82254464285714,18.92972336496621L210.81696428571428,18.579226766313777L211.81138392857142,19.014448813029656L212.80580357142856,19.05749358449658L213.80022321428572,19.108722925186118L214.79464285714286,19.619424888065826L215.7890625,18.55361209596902L216.78348214285714,18.328081744057737L217.77790178571428,18.802483626774322L218.77232142857142,18.403106961931453L219.76674107142856,18.369610854557525L220.7611607142857,18.73708285604199L221.75558035714283,18.788160630634795L222.75,17.59601749692639L223.74441964285714,18.333083425249324L224.73883928571428,17.6802882466997L225.73325892857142,18.2235011373247L226.72767857142858,16.61212618010379L227.72209821428572,17.411485774176416L228.71651785714286,17.62087433678759L229.7109375,17.101002625056633L230.70535714285717,16.979749747684966L231.6997767857143,17.07599421909872L232.69419642857144,16.54793793814517L233.68861607142858,16.060046672821006L234.68303571428572,16.660854680197534L235.67745535714286,16.401525088718902L236.671875,16.606518234525357L237.66629464285714,16.528006996427212L238.66071428571428,16.965350968497095L239.65513392857144,16.000481196812164L240.64955357142858,16.257234164646636L241.64397321428572,15.255458048411736L242.63839285714286,16.612959793635735L243.6328125,16.112564325332603L244.62723214285714,14.658818108694849L245.62165178571428,15.598755257470213L246.61607142857142,16.5814340455191L247.61049107142856,15.461436373846826L248.60491071428572,14.66647219657894L249.59933035714286,16.462378876549803L250.59375,15.584811176572476L251.58816964285714,15.11389531408032L252.58258928571428,15.773965665272247L253.57700892857142,15.286377532141504L254.57142857142856,14.212304387773738L255.5658482142857,14.045884813581143L256.56026785714283,14.709895883287654L257.5546875,14.371676138469109L258.54910714285717,14.05179589135302L259.5435267857143,15.329346520560083L260.53794642857144,14.259517226900325L261.53236607142856,13.765335968562493L262.5267857142857,14.18267321586605L263.52120535714283,15.186950172696744L264.515625,14.079002005713281L265.51004464285717,13.08033299446102L266.5044642857143,14.242541824068294L267.49888392857144,13.114359583173428" fill="none"></path></g></g></g></g></g></g><g transform="translate(51, 178)" clip-path="url(#clip_1)"><clipPath id="clip_1"><rect width="278" height="21"></rect></clipPath><g><g><line x1="0" y1="0" x2="0" y2="5" style="visibility: inherit;" fill="rgb(0, 0, 0)" stroke="rgb(204, 204, 204)" stroke-width="1px"></line><line x1="19.888392857142858" y1="0" x2="19.888392857142858" y2="5" style="visibility: inherit;" fill="rgb(0, 0, 0)" stroke="rgb(204, 204, 204)" stroke-width="1px"></line><line x1="39.776785714285715" y1="0" x2="39.776785714285715" y2="5" style="visibility: inherit;" fill="rgb(0, 0, 0)" stroke="rgb(204, 204, 204)" stroke-width="1px"></line><line x1="59.66517857142857" y1="0" x2="59.66517857142857" y2="5" style="visibility: inherit;" fill="rgb(0, 0, 0)" stroke="rgb(204, 204, 204)" stroke-width="1px"></line><line x1="79.55357142857143" y1="0" x2="79.55357142857143" y2="5" style="visibility: inherit;" fill="rgb(0, 0, 0)" stroke="rgb(204, 204, 204)" stroke-width="1px"></line><line x1="99.44196428571429" y1="0" x2="99.44196428571429" y2="5" style="visibility: inherit;" fill="rgb(0, 0, 0)" stroke="rgb(204, 204, 204)" stroke-width="1px"></line><line x1="119.33035714285714" y1="0" x2="119.33035714285714" y2="5" style="visibility: inherit;" fill="rgb(0, 0, 0)" stroke="rgb(204, 204, 204)" stroke-width="1px"></line><line x1="139.21875" y1="0" x2="139.21875" y2="5" style="visibility: inherit;" fill="rgb(0, 0, 0)" stroke="rgb(204, 204, 204)" stroke-width="1px"></line><line x1="159.10714285714286" y1="0" x2="159.10714285714286" y2="5" style="visibility: inherit;" fill="rgb(0, 0, 0)" stroke="rgb(204, 204, 204)" stroke-width="1px"></line><line x1="178.99553571428572" y1="0" x2="178.99553571428572" y2="5" style="visibility: inherit;" fill="rgb(0, 0, 0)" stroke="rgb(204, 204, 204)" stroke-width="1px"></line><line x1="198.88392857142858" y1="0" x2="198.88392857142858" y2="5" style="visibility: inherit;" fill="rgb(0, 0, 0)" stroke="rgb(204, 204, 204)" stroke-width="1px"></line><line x1="218.77232142857142" y1="0" x2="218.77232142857142" y2="5" style="visibility: inherit;" fill="rgb(0, 0, 0)" stroke="rgb(204, 204, 204)" stroke-width="1px"></line><line x1="238.66071428571428" y1="0" x2="238.66071428571428" y2="5" style="visibility: inherit;" fill="rgb(0, 0, 0)" stroke="rgb(204, 204, 204)" stroke-width="1px"></line><line x1="258.54910714285717" y1="0" x2="258.54910714285717" y2="5" style="visibility: inherit;" fill="rgb(0, 0, 0)" stroke="rgb(204, 204, 204)" stroke-width="1px"></line><line x1="278.4375" y1="0" x2="278.4375" y2="5" style="visibility: inherit;" fill="rgb(0, 0, 0)" stroke="rgb(204, 204, 204)" stroke-width="1px"></line></g><g transform="translate(0, 8)"><text x="0" y="0" dx="0em" dy="0.95em" style="text-anchor: middle; visibility: hidden; font-family: Roboto, sans-serif; font-size: 12px; font-weight: 200;" fill="rgb(50, 49, 63)" stroke="none" stroke-width="1px">-20</text><text x="19.888392857142858" y="0" dx="0em" dy="0.95em" style="text-anchor: middle; visibility: inherit; font-family: Roboto, sans-serif; font-size: 12px; font-weight: 200;" fill="rgb(50, 49, 63)" stroke="none" stroke-width="1px">0</text><text x="39.776785714285715" y="0" dx="0em" dy="0.95em" style="text-anchor: middle; visibility: hidden; font-family: Roboto, sans-serif; font-size: 12px; font-weight: 200;" fill="rgb(50, 49, 63)" stroke="none" stroke-width="1px">20</text><text x="59.66517857142857" y="0" dx="0em" dy="0.95em" style="text-anchor: middle; visibility: inherit; font-family: Roboto, sans-serif; font-size: 12px; font-weight: 200;" fill="rgb(50, 49, 63)" stroke="none" stroke-width="1px">40</text><text x="79.55357142857143" y="0" dx="0em" dy="0.95em" style="text-anchor: middle; visibility: hidden; font-family: Roboto, sans-serif; font-size: 12px; font-weight: 200;" fill="rgb(50, 49, 63)" stroke="none" stroke-width="1px">60</text><text x="99.44196428571429" y="0" dx="0em" dy="0.95em" style="text-anchor: middle; visibility: inherit; font-family: Roboto, sans-serif; font-size: 12px; font-weight: 200;" fill="rgb(50, 49, 63)" stroke="none" stroke-width="1px">80</text><text x="119.33035714285714" y="0" dx="0em" dy="0.95em" style="text-anchor: middle; visibility: hidden; font-family: Roboto, sans-serif; font-size: 12px; font-weight: 200;" fill="rgb(50, 49, 63)" stroke="none" stroke-width="1px">100</text><text x="139.21875" y="0" dx="0em" dy="0.95em" style="text-anchor: middle; visibility: inherit; font-family: Roboto, sans-serif; font-size: 12px; font-weight: 200;" fill="rgb(50, 49, 63)" stroke="none" stroke-width="1px">120</text><text x="159.10714285714286" y="0" dx="0em" dy="0.95em" style="text-anchor: middle; visibility: hidden; font-family: Roboto, sans-serif; font-size: 12px; font-weight: 200;" fill="rgb(50, 49, 63)" stroke="none" stroke-width="1px">140</text><text x="178.99553571428572" y="0" dx="0em" dy="0.95em" style="text-anchor: middle; visibility: inherit; font-family: Roboto, sans-serif; font-size: 12px; font-weight: 200;" fill="rgb(50, 49, 63)" stroke="none" stroke-width="1px">160</text><text x="198.88392857142858" y="0" dx="0em" dy="0.95em" style="text-anchor: middle; visibility: hidden; font-family: Roboto, sans-serif; font-size: 12px; font-weight: 200;" fill="rgb(50, 49, 63)" stroke="none" stroke-width="1px">180</text><text x="218.77232142857142" y="0" dx="0em" dy="0.95em" style="text-anchor: middle; visibility: inherit; font-family: Roboto, sans-serif; font-size: 12px; font-weight: 200;" fill="rgb(50, 49, 63)" stroke="none" stroke-width="1px">200</text><text x="238.66071428571428" y="0" dx="0em" dy="0.95em" style="text-anchor: middle; visibility: hidden; font-family: Roboto, sans-serif; font-size: 12px; font-weight: 200;" fill="rgb(50, 49, 63)" stroke="none" stroke-width="1px">220</text><text x="258.54910714285717" y="0" dx="0em" dy="0.95em" style="text-anchor: middle; visibility: inherit; font-family: Roboto, sans-serif; font-size: 12px; font-weight: 200;" fill="rgb(50, 49, 63)" stroke="none" stroke-width="1px">240</text><text x="278.4375" y="0" dx="0em" dy="0.95em" style="text-anchor: middle; visibility: hidden; font-family: Roboto, sans-serif; font-size: 12px; font-weight: 200;" fill="rgb(50, 49, 63)" stroke="none" stroke-width="1px">260</text></g><line x1="0" y1="0" x2="278.4375" y2="0" fill="rgb(0, 0, 0)" stroke="rgb(204, 204, 204)" stroke-width="1px"></line></g></g></g></g></svg>