<svg viewBox="0 0 330 200" xmlns="http://www.w3.org/2000/svg"><g><g><g><g><g><line x1="51.5625" y1="178" x2="46.5625" y2="178" style="visibility: inherit;" fill="rgb(0, 0, 0)" stroke="rgb(204, 204, 204)" stroke-width="1px"></line><line x1="51.5625" y1="161.8181818181818" x2="46.5625" y2="161.8181818181818" style="visibility: inherit;" fill="rgb(0, 0, 0)" stroke="rgb(204, 204, 204)" stroke-width="1px"></line><line x1="51.5625" y1="145.6363636363636" x2="46.5625" y2="145.6363636363636" style="visibility: inherit;" fill="rgb(0, 0, 0)" stroke="rgb(204, 204, 204)" stroke-width="1px"></line><line x1="51.5625" y1="129.4545454545454" x2="46.5625" y2="129.4545454545454" style="visibility: inherit;" fill="rgb(0, 0, 0)" stroke="rgb(204, 204, 204)" stroke-width="1px"></line><line x1="51.5625" y1="113.2727272727273" x2="46.5625" y2="113.2727272727273" style="visibility: inherit;" fill="rgb(0, 0, 0)" stroke="rgb(204, 204, 204)" stroke-width="1px"></line><line x1="51.5625" y1="97.09090909090908" x2="46.5625" y2="97.09090909090908" style="visibility: inherit;" fill="rgb(0, 0, 0)" stroke="rgb(204, 204, 204)" stroke-width="1px"></line><line x1="51.5625" y1="80.90909090909089" x2="46.5625" y2="80.90909090909089" style="visibility: inherit;" fill="rgb(0, 0, 0)" stroke="rgb(204, 204, 204)" stroke-width="1px"></line><line x1="51.5625" y1="64.7272727272727" x2="46.5625" y2="64.7272727272727" style="visibility: inherit;" fill="rgb(0, 0, 0)" stroke="rgb(204, 204, 204)" stroke-width="1px"></line><line x1="51.5625" y1="48.545454545454525" x2="46.5625" y2="48.545454545454525" style="visibility: inherit;" fill="rgb(0, 0, 0)" stroke="rgb(204, 204, 204)" stroke-width="1px"></line><line x1="51.5625" y1="32.363636363636395" x2="46.5625" y2="32.363636363636395" style="visibility: inherit;" fill="rgb(0, 0, 0)" stroke="rgb(204, 204, 204)" stroke-width="1px"></line><line x1="51.5625" y1="16.181818181818187" x2="46.5625" y2="16.181818181818187" style="visibility: inherit;" fill="rgb(0, 0, 0)" stroke="rgb(204, 204, 204)" stroke-width="1px"></line><line x1="51.5625" y1="0" x2="46.5625" y2="0" style="visibility: inherit;" fill="rgb(0, 0, 0)" stroke="rgb(204, 204, 204)" stroke-width="1px"></line></g><g transform="translate(41.5625, 0)"><text x="0" y="178" dx="0em" dy="0.3em" style="text-anchor: end; visibility: hidden; font-family: Roboto, sans-serif; font-size: 12px; font-weight: 200;" fill="rgb(50, 49, 63)" stroke="none" stroke-width="1px">0.95</text><text x="0" y="161.8181818181818" dx="0em" dy="0.3em" style="text-anchor: end; visibility: inherit; font-family: Roboto, sans-serif; font-size: 12px; font-weight: 200;" fill="rgb(50, 49, 63)" stroke="none" stroke-width="1px">1</text><text x="0" y="145.6363636363636" dx="0em" dy="0.3em" style="text-anchor: end; visibility: hidden; font-family: Roboto, sans-serif; font-size: 12px; font-weight: 200;" fill="rgb(50, 49, 63)" stroke="none" stroke-width="1px">1.05</text><text x="0" y="129.4545454545454" dx="0em" dy="0.3em" style="text-anchor: end; visibility: inherit; font-family: Roboto, sans-serif; font-size: 12px; font-weight: 200;" fill="rgb(50, 49, 63)" stroke="none" stroke-width="1px">1.1</text><text x="0" y="113.2727272727273" dx="0em" dy="0.3em" style="text-anchor: end; visibility: hidden; font-family: Roboto, sans-serif; font-size: 12px; font-weight: 200;" fill="rgb(50, 49, 63)" stroke="none" stroke-width="1px">1.15</text><text x="0" y="97.09090909090908" dx="0em" dy="0.3em" style="text-anchor: end; visibility: inherit; font-family: Roboto, sans-serif; font-size: 12px; font-weight: 200;" fill="rgb(50, 49, 63)" stroke="none" stroke-width="1px">1.2</text><text x="0" y="80.90909090909089" dx="0em" dy="0.3em" style="text-anchor: end; visibility: hidden; font-family: Roboto, sans-serif; font-size: 12px; font-weight: 200;" fill="rgb(50, 49, 63)" stroke="none" stroke-width="1px">1.25</text><text x="0" y="64.7272727272727" dx="0em" dy="0.3em" style="text-anchor: end; visibility: inherit; font-family: Roboto, sans-serif; font-size: 12px; font-weight: 200;" fill="rgb(50, 49, 63)" stroke="none" stroke-width="1px">1.3</text><text x="0" y="48.545454545454525" dx="0em" dy="0.3em" style="text-anchor: end; visibility: hidden; font-family: Roboto, sans-serif; font-size: 12px; font-weight: 200;" fill="rgb(50, 49, 63)" stroke="none" stroke-width="1px">1.35</text><text x="0" y="32.363636363636395" dx="0em" dy="0.3em" style="text-anchor: end; visibility: inherit; font-family: Roboto, sans-serif; font-size: 12px; font-weight: 200;" fill="rgb(50, 49, 63)" stroke="none" stroke-width="1px">1.4</text><text x="0" y="16.181818181818187" dx="0em" dy="0.3em" style="text-anchor: end; visibility: hidden; font-family: Roboto, sans-serif; font-size: 12px; font-weight: 200;" fill="rgb(50, 49, 63)" stroke="none" stroke-width="1px">1.45</text><text x="0" y="0" dx="0em" dy="0.3em" style="text-anchor: end; visibility: hidden; font-family: Roboto, sans-serif; font-size: 12px; font-weight: 200;" fill="rgb(50, 49, 63)" stroke="none" stroke-width="1px">1.5</text></g><line x1="51.5625" y1="0" x2="51.5625" y2="178" fill="rgb(0, 0, 0)" stroke="rgb(204, 204, 204)" stroke-width="1px"></line></g></g><g transform="translate(51, 0)" clip-path="url(#clip_0)"><clipPath id="clip_0"><rect width="278" height="177"></rect></clipPath><g><g><g><line x1="0" y1="0" x2="0" y2="178" fill="rgb(0, 0, 0)" stroke="rgb(60, 60, 60)" stroke-width="1px" opacity="0.25"></line><line x1="19.888392857142858" y1="0" x2="19.888392857142858" y2="178" fill="rgb(0, 0, 0)" stroke="rgb(60, 60, 60)" stroke-width="1px" opacity="0.25"></line><line x1="39.776785714285715" y1="0" x2="39.776785714285715" y2="178" fill="rgb(0, 0, 0)" stroke="rgb(60, 60, 60)" stroke-width="1px" opacity="0.25"></line><line x1="59.66517857142857" y1="0" x2="59.66517857142857" y2="178" fill="rgb(0, 0, 0)" stroke="rgb(60, 60, 60)" stroke-width="1px" opacity="0.25"></line><line x1="79.55357142857143" y1="0" x2="79.55357142857143" y2="178" fill="rgb(0, 0, 0)" stroke="rgb(60, 60, 60)" stroke-width="1px" opacity="0.25"></line><line x1="99.44196428571429" y1="0" x2="99.44196428571429" y2="178" fill="rgb(0, 0, 0)" stroke="rgb(60, 60, 60)" stroke-width="1px" opacity="0.25"></line><line x1="119.33035714285714" y1="0" x2="119.33035714285714" y2="178" fill="rgb(0, 0, 0)" stroke="rgb(60, 60, 60)" stroke-width="1px" opacity="0.25"></line><line x1="139.21875" y1="0" x2="139.21875" y2="178" fill="rgb(0, 0, 0)" stroke="rgb(60, 60, 60)" stroke-width="1px" opacity="0.25"></line><line x1="159.10714285714286" y1="0" x2="159.10714285714286" y2="178" fill="rgb(0, 0, 0)" stroke="rgb(60, 60, 60)" stroke-width="1px" opacity="0.25"></line><line x1="178.99553571428572" y1="0" x2="178.99553571428572" y2="178" fill="rgb(0, 0, 0)" stroke="rgb(60, 60, 60)" stroke-width="1px" opacity="0.25"></line><line x1="198.88392857142858" y1="0" x2="198.88392857142858" y2="178" fill="rgb(0, 0, 0)" stroke="rgb(60, 60, 60)" stroke-width="1px" opacity="0.25"></line><line x1="218.77232142857142" y1="0" x2="218.77232142857142" y2="178" fill="rgb(0, 0, 0)" stroke="rgb(60, 60, 60)" stroke-width="1px" opacity="0.25"></line><line x1="238.66071428571428" y1="0" x2="238.66071428571428" y2="178" fill="rgb(0, 0, 0)" stroke="rgb(60, 60, 60)" stroke-width="1px" opacity="0.25"></line><line x1="258.54910714285717" y1="0" x2="258.54910714285717" y2="178" fill="rgb(0, 0, 0)" stroke="rgb(60, 60, 60)" stroke-width="1px" opacity="0.25"></line><line x1="278.4375" y1="0" x2="278.4375" y2="178" fill="rgb(0, 0, 0)" stroke="rgb(60, 60, 60)" stroke-width="1px" opacity="0.25"></line></g><g><line x1="0" y1="178" x2="278.4375" y2="178" fill="rgb(0, 0, 0)" stroke="rgb(60, 60, 60)" stroke-width="1px" opacity="0.25"></line><line x1="0" y1="161.8181818181818" x2="278.4375" y2="161.8181818181818" fill="rgb(0, 0, 0)" stroke="rgb(60, 60, 60)" stroke-width="1px" opacity="0.25"></line><line x1="0" y1="145.6363636363636" x2="278.4375" y2="145.6363636363636" fill="rgb(0, 0, 0)" stroke="rgb(60, 60, 60)" stroke-width="1px" opacity="0.25"></line><line x1="0" y1="129.4545454545454" x2="278.4375" y2="129.4545454545454" fill="rgb(0, 0, 0)" stroke="rgb(60, 60, 60)" stroke-width="1px" opacity="0.25"></line><line x1="0" y1="113.2727272727273" x2="278.4375" y2="113.2727272727273" fill="rgb(0, 0, 0)" stroke="rgb(60, 60, 60)" stroke-width="1px" opacity="0.25"></line><line x1="0" y1="97.09090909090908" x2="278.4375" y2="97.09090909090908" fill="rgb(0, 0, 0)" stroke="rgb(60, 60, 60)" stroke-width="1px" opacity="0.25"></line><line x1="0" y1="80.90909090909089" x2="278.4375" y2="80.90909090909089" fill="rgb(0, 0, 0)" stroke="rgb(60, 60, 60)" stroke-width="1px" opacity="0.25"></line><line x1="0" y1="64.7272727272727" x2="278.4375" y2="64.7272727272727" fill="rgb(0, 0, 0)" stroke="rgb(60, 60, 60)" stroke-width="1px" opacity="0.25"></line><line x1="0" y1="48.545454545454525" x2="278.4375" y2="48.545454545454525" fill="rgb(0, 0, 0)" stroke="rgb(60, 60, 60)" stroke-width="1px" opacity="0.25"></line><line x1="0" y1="32.363636363636395" x2="278.4375" y2="32.363636363636395" fill="rgb(0, 0, 0)" stroke="rgb(60, 60, 60)" stroke-width="1px" opacity="0.25"></line><line x1="0" y1="16.181818181818187" x2="278.4375" y2="16.181818181818187" fill="rgb(0, 0, 0)" stroke="rgb(60, 60, 60)" stroke-width="1px" opacity="0.25"></line><line x1="0" y1="0" x2="278.4375" y2="0" fill="rgb(0, 0, 0)" stroke="rgb(60, 60, 60)" stroke-width="1px" opacity="0.25"></line></g></g></g><g><g><line x1="0" y1="485.45454545454544" x2="278.4375" y2="485.45454545454544" fill="rgb(0, 0, 0)" stroke="rgb(153, 153, 153)" stroke-width="1.5px"></line></g></g><g><g><line x1="19.888392857142858" y1="0" x2="19.888392857142858" y2="178" fill="rgb(0, 0, 0)" stroke="rgb(153, 153, 153)" stroke-width="1.5px"></line></g></g><g><g><g><g><g><path stroke="rgb(0, 119, 187)" stroke-width="2px" d="M29.832589285714285,-3.114332852852381L30.827008928571427,7.5700960094612135L31.82142857142857,8.626685549977996L32.815848214285715,19.941626735318145L33.810267857142854,28.735006052824847L34.8046875,36.484376823304984L35.79910714285714,42.14087800507568L36.793526785714285,47.58603688601033L37.78794642857142,51.611871944193624L38.78236607142857,54.947763993265326L39.776785714285715,58.54306126678358L40.77120535714286,62.92655797097137L41.765625,66.58860825218382L42.760044642857146,68.40546106080654L43.754464285714285,70.96752403280736L44.74888392857143,74.09651252866261L45.74330357142857,76.946254279595L46.73772321428571,77.4176484732486L47.732142857142854,80.83325025455935L48.7265625,84.35231035564586L49.720982142857146,86.22258714090138L50.715401785714285,87.86245658430853L51.70982142857143,90.68223720640654L52.70424107142857,91.93072339099774L53.698660714285715,93.80718246468348L54.693080357142854,95.70531526759765L55.6875,97.57245515500156L56.681919642857146,99.42942526914116L57.67633928571429,100.63305227415164L58.67075892857143,101.6478689884727L59.66517857142857,103.20068400752157L60.659598214285715,104.76862654878884L61.654017857142854,106.5254459839909L62.6484375,106.92374696890373L63.64285714285714,108.26026451393408L64.63727678571429,109.66639135643071L65.63169642857143,110.99770905651742L66.62611607142857,112.39661103103214L67.62053571428571,113.56666392726208L68.61495535714286,114.89268060873167L69.609375,115.77895470091454L70.60379464285714,117.30597159208192L71.59821428571428,118.0709463197302L72.59263392857143,119.09072130496737L73.58705357142857,119.7500402631167L74.58147321428571,120.09012207074528L75.57589285714285,121.07925267193512L76.5703125,122.3279352854122L77.56473214285714,123.11504629836693L78.55915178571429,123.72050808963367L79.55357142857143,124.77827975862088L80.54799107142858,125.23707758667331L81.54241071428572,126.21219041353183L82.53683035714286,126.65886228001273L83.53125,127.87707128951642L84.52566964285714,127.94097138921056L85.52008928571429,129.14731175697722L86.51450892857143,129.501252814296L87.50892857142857,130.02482287915157L88.50334821428571,131.01054271846877L89.49776785714286,132.25028068839887L90.4921875,131.87558331338553L91.48660714285714,131.82263312595967L92.48102678571428,132.1508032822809L93.47544642857142,133.31777248700214L94.46986607142857,134.4113358221906L95.46428571428571,134.62285715876405L96.45870535714286,134.9043387195859L97.453125,135.33575997696866L98.44754464285715,136.31358277007237L99.44196428571429,136.4548264434376L100.43638392857143,137.7029587322735L101.43080357142857,138.2821612381767L102.42522321428572,138.8188195936362L103.41964285714286,139.08748097765059L104.4140625,140.00585793528973L105.40848214285714,140.2911110302612L106.40290178571428,140.61643040932765L107.39732142857143,140.92781095306063L108.39174107142857,141.33589050693942L109.38616071428571,141.74808484682165L110.38058035714285,141.19629207852535L111.375,141.57529751801144L112.36941964285714,142.1556811353186L113.36383928571429,142.44446653142197L114.35825892857143,142.8827855360296L115.35267857142858,143.06170239822245L116.34709821428572,144.00598617171042L117.34151785714286,143.95124125996648L118.3359375,143.55189536577655L119.33035714285714,144.2469380770099L120.32477678571429,144.97169689272582L121.31919642857143,145.24577968515166L122.31361607142857,145.82856501512597L123.30803571428571,146.2097950301938L124.30245535714286,145.8962306474886L125.296875,146.75657005769375L126.29129464285714,147.0287445720141L127.28571428571428,147.21271297550823L128.28013392857142,147.5568607467862L129.27455357142858,147.87021728647284L130.26897321428572,147.8064859862858L131.26339285714286,148.33877506317373L132.2578125,147.67497947382844L133.25223214285714,147.1777355217105L134.24665178571428,148.23654174249182L135.24107142857142,148.6934602877492L136.23549107142856,149.0826120529984L137.22991071428572,149.29928203115986L138.22433035714286,149.2243137449521L139.21875,149.15508881154642L140.21316964285714,149.63259994136897L141.20758928571428,150.52083835310484L142.20200892857142,150.90422810119622L143.19642857142856,151.19580550140932L144.19084821428572,151.17062737433193L145.18526785714286,150.72365081785418L146.1796875,151.49222989584172L147.17410714285714,151.44945479347314L148.16852678571428,151.35533256208572L149.16294642857142,151.34797986617545L150.15736607142856,151.97026925681905L151.1517857142857,152.34912131666474L152.14620535714283,152.85614089469078L153.140625,152.8846720995142L154.13504464285714,152.7896760027949L155.12946428571428,153.2032365112672L156.12388392857142,153.35137226148555L157.11830357142858,153.74007018999902L158.11272321428572,154.28969502371177L159.10714285714286,154.3628481296723L160.1015625,154.4923114557064L161.09598214285717,154.92593278434583L162.0904017857143,155.0226787488102L163.08482142857144,154.55498266959637L164.07924107142858,154.97742447863328L165.07366071428572,155.43065919101966L166.06808035714286,155.31681084081694L167.0625,155.30797746934502L168.05691964285714,155.92842165921928L169.05133928571428,156.11216860860193L170.04575892857144,156.27295718211786L171.04017857142858,156.5306349243941L172.03459821428572,156.79383785133172L173.02901785714286,156.5291338057142L174.0234375,156.6653130151957L175.01785714285714,156.70728266607318L176.01227678571428,157.44601779855194L177.00669642857142,157.72217461761886L178.00111607142856,157.33507243192605L178.99553571428572,157.46741190897362L179.98995535714286,157.5374328270914L180.984375,157.43766989994577L181.97879464285714,157.6165480362143L182.97321428571428,157.80206979629358L183.96763392857142,157.85546586431508L184.96205357142856,158.06000446227026L185.9564732142857,158.2114932127514L186.95089285714283,158.35166142780628L187.9453125,158.27515961386368L188.93973214285714,158.885311548403L189.93415178571428,158.69124528003834L190.92857142857142,159.08591946610758L191.92299107142858,158.73974234794403L192.91741071428572,159.26682410472256L193.91183035714286,159.48864362249043L194.90625,159.34809183949878L195.90066964285717,158.52051590497987L196.8950892857143,159.0135900328228L197.88950892857144,159.70023914709066L198.88392857142858,158.968379676276L199.87834821428572,159.44300363168222L200.87276785714286,159.26323839033523L201.8671875,159.34962415047863L202.86160714285714,159.36491219392263L203.85602678571428,158.7885879441279L204.85044642857144,159.67707493416808L205.84486607142858,159.77979436984702L206.83928571428572,160.06275441981526L207.83370535714286,160.07288450225315L208.828125,160.04860744501534L209.82254464285714,160.218532975088L210.81696428571428,160.3437291628271L211.81138392857142,160.52829192718394L212.80580357142856,160.55759394875756L213.80022321428572,161.28333495520866L214.79464285714286,161.45346172890692L215.7890625,161.65476673877126L216.78348214285714,161.61633589830984L217.77790178571428,161.96091060672939L218.77232142857142,161.92293956777297L219.76674107142856,161.74071161525322L220.7611607142857,161.81554253228447L221.75558035714283,161.7261965104706L222.75,161.7931682701351L223.74441964285714,162.02328293534768L224.73883928571428,162.24088921283544L225.73325892857142,162.16733147636515L226.72767857142858,162.31110682774138L227.72209821428572,162.09375152673184L228.71651785714286,162.30236028895834L229.7109375,162.09396659673703L230.70535714285717,162.08711004948398L231.6997767857143,162.34076761313653L232.69419642857144,162.72071032859637L233.68861607142858,162.9109288348476L234.68303571428572,163.17315489612338L235.67745535714286,163.10136117511743L236.671875,162.5473793299151L237.66629464285714,162.79916784688922L238.66071428571428,162.79554874072076L239.65513392857144,163.2373689380915L240.64955357142858,163.16957340697775L241.64397321428572,163.62990967071252L242.63839285714286,163.30759730555695L243.6328125,163.5829547713014L244.62723214285714,163.46413989699934L245.62165178571428,163.2567699704428L246.61607142857142,163.58128569067856L247.61049107142856,163.88560221246954L248.60491071428572,163.32082686758736L249.59933035714286,163.42474961134718L250.59375,163.8065880549941L251.58816964285714,163.75406918819888L252.58258928571428,163.81828370791L253.57700892857142,164.070417000009L254.57142857142856,164.12300815607674L255.5658482142857,163.89543332548644L256.56026785714283,164.1168533763066L257.5546875,164.49201385004153L258.54910714285717,164.49154561110578L259.5435267857143,164.89826538282665L260.53794642857144,164.80474907663648L261.53236607142856,164.74679514688742L262.5267857142857,164.74562637055325L263.52120535714283,164.83707839385403L264.515625,164.67318296188284L265.51004464285717,164.93433072203715L266.5044642857143,165.13076496903324L267.49888392857144,165.3201922723523" style="fill: none;" fill="none"></path></g><g><path stroke="rgb(255, 112, 67)" stroke-width="2px" d="M31.82142857142857,-0.5850131476310776L32.815848214285715,8.452295769406529L33.810267857142854,16.192871862921216L34.8046875,22.55004145166895L35.79910714285714,28.714130885531134L36.793526785714285,34.65524341640918L37.78794642857142,39.36818136325297L38.78236607142857,44.314599548984354L39.776785714285715,48.239151136582706L40.77120535714286,52.380681410073755L41.765625,55.890964276382725L42.760044642857146,59.10348566004022L43.754464285714285,62.05883687952707L44.74888392857143,64.83255875126882L45.74330357142857,67.39952626054071L46.73772321428571,70.12917229153754L47.732142857142854,72.26004817472827L48.7265625,74.7566049211826L49.720982142857146,77.69795731009302L50.715401785714285,80.06772560226773L51.70982142857143,82.38238466317422L52.70424107142857,84.32278804371828L53.698660714285715,86.1615862600518L54.693080357142854,87.97942161092934L55.6875,90.11165637275305L56.681919642857146,91.95019785713437L57.67633928571429,93.12539104466876L58.67075892857143,95.01713391161209L59.66517857142857,96.6941425142835L60.659598214285715,98.67788396367074L61.654017857142854,100.1489791565369L62.6484375,101.51737970801533L63.64285714285714,103.124720698012L64.63727678571429,104.26614787908353L65.63169642857143,105.70907938163452L66.62611607142857,107.11232583335791L67.62053571428571,108.15285505314046L68.61495535714286,108.91225049499185L69.609375,110.18724415825179L70.60379464285714,111.38900203888883L71.59821428571428,112.39349969801097L72.59263392857143,113.9232713386945L73.58705357142857,114.87861909899368L74.58147321428571,115.69229205238075L75.57589285714285,116.48094502235546L76.5703125,117.41950975688819L77.56473214285714,118.4932224182421L78.55915178571429,119.45757524809777L79.55357142857143,120.2164657240873L80.54799107142858,121.06275896908711L81.54241071428572,122.21640269729255L82.53683035714286,122.88067211264934L83.53125,123.63429746037194L84.52566964285714,124.49439159905913L85.52008928571429,125.20887510919357L86.51450892857143,125.79813709388088L87.50892857142857,126.32401005562276L88.50334821428571,127.16419723765271L89.49776785714286,127.5576144882215L90.4921875,128.3399795982507L91.48660714285714,129.0084121141972L92.48102678571428,129.8636408104439L93.47544642857142,130.81590083508783L94.46986607142857,131.4479824954597L95.46428571428571,131.81625920857948L96.45870535714286,132.2598190641325L97.453125,132.7019436082793L98.44754464285715,133.36490572656868L99.44196428571429,133.8485322393192L100.43638392857143,134.14630078169074L101.43080357142857,134.97385439646027L102.42522321428572,135.51467693452918L103.41964285714286,136.28474391734255L104.4140625,136.42712183951912L105.40848214285714,136.81654719317794L106.40290178571428,137.3440466283957L107.39732142857143,137.93721449131965L108.39174107142857,138.65716043889915L109.38616071428571,138.83775315587317L110.38058035714285,139.0087634546922L111.375,139.51925769966863L112.36941964285714,139.96601798899727L113.36383928571429,140.39325714460574L114.35825892857143,140.58327310945077L115.35267857142858,140.85268478519285L116.34709821428572,140.9152571668366L117.34151785714286,141.60402334501273L118.3359375,141.99351748795354L119.33035714285714,142.41357303244502L120.32477678571429,143.0483245320802L121.31919642857143,143.35405155823736L122.31361607142857,143.61060546358453L123.30803571428571,144.04199304999023L124.30245535714286,144.56558015727575L125.296875,145.07724894968993L126.29129464285714,145.4059941729478L127.28571428571428,145.4964042943515L128.28013392857142,145.2055404276185L129.27455357142858,146.45312876373998L130.26897321428572,146.73175631846902L131.26339285714286,147.0437021730949L132.2578125,147.77030169131922L133.25223214285714,148.05638402743136L134.24665178571428,148.13159770882828L135.24107142857142,148.46217503237926L136.23549107142856,148.64251206732348L137.22991071428572,148.6959146015114L138.22433035714286,148.79051819755233L139.21875,149.21098607694535L140.21316964285714,149.41527271111968L141.20758928571428,149.73923469794977L142.20200892857142,150.02598894582283L143.19642857142856,150.239152833769L144.19084821428572,150.63490759104172L145.18526785714286,151.07225352984477L146.1796875,151.5663753417838L147.17410714285714,151.56292392527402L148.16852678571428,151.97192017103802L149.16294642857142,152.16813554683668L150.15736607142856,152.56006382460637L151.1517857142857,152.8035850352091L152.14620535714283,153.11178199424782L153.140625,153.28111366343433L154.13504464285714,153.6387789005752L155.12946428571428,153.5985155176134L156.12388392857142,153.62931149645897L157.11830357142858,153.7420951625904L158.11272321428572,154.04489012367733L159.10714285714286,154.5230810912518L160.1015625,154.6018926652602L161.09598214285717,155.15341080251423L162.0904017857143,155.03896427547608L163.08482142857144,155.51039194863077L164.07924107142858,155.60486787764125L165.07366071428572,155.5192841271307L166.06808035714286,156.01611593082393L167.0625,156.43376814553048L168.05691964285714,156.2812862502L169.05133928571428,156.5791202608622L170.04575892857144,157.0532698374588L171.04017857142858,156.8534204762501L172.03459821428572,157.5284689741489L173.02901785714286,157.6236815390192L174.0234375,157.97027056059636L175.01785714285714,157.9494572721044L176.01227678571428,158.01956234987927L177.00669642857142,158.20462001712747L178.00111607142856,158.0001127431977L178.99553571428572,158.3792630152923L179.98995535714286,158.82209387956553L180.984375,158.8551985149618L181.97879464285714,159.28298022625341L182.97321428571428,158.97660600545862L183.96763392857142,159.0922584433076L184.96205357142856,159.44294776312813L185.9564732142857,159.44539723814364L186.95089285714283,159.7014362368959L187.9453125,159.75626279166482L188.93973214285714,160.00260126686237L189.93415178571428,160.19481817866327L190.92857142857142,160.36533381713227L191.92299107142858,160.72688846582753L192.91741071428572,160.90144447670224L193.91183035714286,160.85617725092945L194.90625,161.33310921865515L195.90066964285717,161.29355671549703L196.8950892857143,161.33197062015182L197.88950892857144,161.249061584904L198.88392857142858,161.8000911021653L199.87834821428572,161.94013676745595L200.87276785714286,161.78386962345073L201.8671875,162.19652418398812L202.86160714285714,162.35103770014564L203.85602678571428,162.65537507051016L204.85044642857144,162.54336166048685L205.84486607142858,162.68479674746288L206.83928571428572,162.51812091013875L207.83370535714286,162.8304093620733L208.828125,162.84707160948145L209.82254464285714,163.14158442548336L210.81696428571428,163.45958147929232L211.81138392857142,163.53053336758362L212.80580357142856,163.46000973723608L213.80022321428572,163.5108442240222L214.79464285714286,163.42749397573635L215.7890625,163.84173022985212L216.78348214285714,163.91831115163308L217.77790178571428,163.66295402052532L218.77232142857142,163.90297494846465L219.76674107142856,164.20122447214163L220.7611607142857,164.04227879297625L221.75558035714283,164.05666508087828L222.75,164.42005190844017L223.74441964285714,164.4160611681187L224.73883928571428,164.62497962481586L225.73325892857142,164.58830047880244L226.72767857142858,165.06346395968356L227.72209821428572,165.11136165800337L228.71651785714286,165.11716033489543L229.7109375,165.38307926881393L230.70535714285717,165.58233763960757L231.6997767857143,165.61689219044845L232.69419642857144,165.71532596937047L233.68861607142858,166.05019795228327L234.68303571428572,165.9969684972666L235.67745535714286,166.09973836182095L236.671875,166.07305874099725L237.66629464285714,166.21296232742307L238.66071428571428,166.0683846927906L239.65513392857144,166.36679457008552L240.64955357142858,166.46791568137127L241.64397321428572,166.85037254100823L242.63839285714286,166.62263732978627L243.6328125,166.63890600210868L244.62723214285714,167.19351590767275L245.62165178571428,167.21379554924232L246.61607142857142,166.9476284564763L247.61049107142856,167.08806103897925L248.60491071428572,167.46530832526963L249.59933035714286,167.1292847494952L250.59375,167.26230980649532L251.58816964285714,167.4367472792996L252.58258928571428,167.31282824775664L253.57700892857142,167.39496689466563L254.57142857142856,167.9062665352535L255.5658482142857,168.18880235792525L256.56026785714283,168.1384152239315L257.5546875,168.30599268308163L258.54910714285717,168.49113839341277L259.5435267857143,168.25654488921373L260.53794642857144,168.35866822075968L261.53236607142856,168.6515870235147L262.5267857142857,168.74473753820547L263.52120535714283,168.42067203508591L264.515625,168.59431347925798L265.51004464285717,169.03030574238986L266.5044642857143,168.865818489185L267.49888392857144,169.2246904045073" style="fill: none;" fill="none"></path></g></g></g></g><g opacity="0.2"><g><g><g><path stroke="rgb(0, 119, 187)" stroke-width="2px" d="M27.84375,-2.177404056895852L28.838169642857146,7.849387689070264L29.832589285714285,16.678834828463476L30.827008928571427,23.538595112887304L31.82142857142857,10.208119912581006L32.815848214285715,36.89187136563387L33.810267857142854,41.91473874178799L34.8046875,48.10296752236106L35.79910714285714,50.62323613600298L36.793526785714285,55.75239268216219L37.78794642857142,57.650011236017384L38.78236607142857,59.9512971531261L39.776785714285715,63.93581000241365L40.77120535714286,69.50165878642689L41.765625,72.08161137320779L42.760044642857146,71.13071875138716L43.754464285714285,74.81060028076172L44.74888392857143,78.78998192873867L45.74330357142857,81.22085961428554L46.73772321428571,78.12473904002796L47.732142857142854,85.95664978027344L48.7265625,89.63089856234463L49.720982142857146,89.02800169858067L50.715401785714285,90.3222604231401L51.70982142857143,94.91190780292857L52.70424107142857,93.80345257845791L53.698660714285715,96.62187099456787L54.693080357142854,98.55251442302357L55.6875,100.3731649572199L56.681919642857146,102.21488042311235L57.67633928571429,102.43849277496338L58.67075892857143,103.17009405656295L59.66517857142857,105.52990653298116L60.659598214285715,107.12054035880347L61.654017857142854,109.16067513552578L62.6484375,107.5211984461004L63.64285714285714,110.26504083113237L64.63727678571429,111.77558161995626L65.63169642857143,112.99468560652299L66.62611607142857,114.49496399272572L67.62053571428571,115.32174327156758L68.61495535714286,116.88170563090931L69.609375,117.1083658391779L70.60379464285714,119.5964969288219L71.59821428571428,119.21840841119939L72.59263392857143,120.62038378282027L73.58705357142857,120.73901870033956L74.58147321428571,120.6002447821877L75.57589285714285,122.56294857371937L76.5703125,124.20095920562744L77.56473214285714,124.29571281779896L78.55915178571429,124.62870077653365L79.55357142857143,126.3649372621016L80.54799107142858,125.925274328752L81.54241071428572,127.67485965381968L82.53683035714286,127.32887007973409L83.53125,129.70438480377197L84.52566964285714,128.03682153875175L85.52008928571429,130.95682230862704L86.51450892857143,130.03216440027407L87.50892857142857,130.81017797643486L88.50334821428571,132.48912247744474L89.49776785714286,134.1098876432939L90.4921875,131.31353725086558L91.48660714285714,131.7432078448209L92.48102678571428,132.64305851676247L93.47544642857142,135.068226294084L94.46986607142857,136.05168082497335L95.46428571428571,134.94013916362414L96.45870535714286,135.32656106081876L97.453125,135.98289186304265L98.44754464285715,137.78031695972788L99.44196428571429,136.66669195348564L100.43638392857143,139.57515716552734L101.43080357142857,139.15096499703145L102.42522321428572,139.62380712682548L103.41964285714286,139.49047305367208L104.4140625,141.38342337174848L105.40848214285714,140.71899067271838L106.40290178571428,141.10440947792745L107.39732142857143,141.3948817686601L108.39174107142857,141.94800983775744L109.38616071428571,142.36637635664505L110.38058035714285,140.36860292608085L111.375,142.14380567724052L112.36941964285714,143.0262565612793L113.36383928571429,142.87764462557706L114.35825892857143,143.540264042941L115.35267857142858,143.33007769151166L116.34709821428572,145.42241183194247L117.34151785714286,143.86912389235061L118.3359375,142.95287652449173L119.33035714285714,145.28950214385986L120.32477678571429,146.05883511629972L121.31919642857143,145.65690387379038L122.31361607142857,146.70274301008743L123.30803571428571,146.7816400527954L124.30245535714286,145.42588407343084L125.296875,148.04707917300138L126.29129464285714,147.43700634349474L127.28571428571428,147.4886655807495L128.28013392857142,148.07308240370315L129.27455357142858,148.34025209600273L130.26897321428572,147.71088903600517L131.26339285714286,149.13720867850563L132.2578125,146.67928608981046L133.25223214285714,146.4318695935336L134.24665178571428,149.82475107366386L135.24107142857142,149.3788381056352L136.23549107142856,149.66633970087224L137.22991071428572,149.62428699840197L138.22433035714286,149.11186131564054L139.21875,149.051251411438L140.21316964285714,150.34886663610283L141.20758928571428,151.85319597070867L142.20200892857142,151.47931272333318L143.19642857142856,151.63317160172895L144.19084821428572,151.13286018371582L145.18526785714286,150.05318598313764L146.1796875,152.64509851282293L147.17410714285714,151.38529213992032L148.16852678571428,151.21414921500465L149.16294642857142,151.33695082231L150.15736607142856,152.90370334278452L151.1517857142857,152.9173994064331L152.14620535714283,153.61667026172984L153.140625,152.92746890674937L154.13504464285714,152.64718185771594L155.12946428571428,153.8235772739757L156.12388392857142,153.57357588681307L157.11830357142858,154.32311708276922L158.11272321428572,155.11413227428088L159.10714285714286,154.47257778861305L160.1015625,154.6865064447576L161.09598214285717,155.5763647773049L162.0904017857143,155.1677976955067L163.08482142857144,153.85343855077568L164.07924107142858,155.6110871921886L165.07366071428572,156.11051125959915L166.06808035714286,155.1460383155129L167.0625,155.29472741213712L168.05691964285714,156.85908794403073L169.05133928571428,156.38778903267598L170.04575892857144,156.5141400423917L171.04017857142858,156.9171515378085L172.03459821428572,157.18864224173805L173.02901785714286,156.13207773728803L174.0234375,156.86958182941783L175.01785714285714,156.77023714238945L176.01227678571428,158.55412049727005L177.00669642857142,158.13640984621915L178.00111607142856,156.7544191533869L178.99553571428572,157.665921124545L179.98995535714286,157.642464204268L180.984375,157.2880255092274L181.97879464285714,157.88486524061722L182.97321428571428,158.08035243641245L183.96763392857142,157.93555996634743L184.96205357142856,158.36681235920298L185.9564732142857,158.43872633847323L186.95089285714283,158.56191375038838L187.9453125,158.16040689294988L188.93973214285714,159.80053945021194L189.93415178571428,158.40014587749133L190.92857142857142,159.6779307452115L191.92299107142858,158.22047667069867L192.91741071428572,160.05744673989034L193.91183035714286,159.82137289914218L194.90625,159.13726416501132L195.90066964285717,157.27915200320157L196.8950892857143,159.75320122458717L197.88950892857144,160.73021281849253L198.88392857142858,157.8705904700539L199.87834821428572,160.1549395647916L200.87276785714286,158.99359052831474L201.8671875,159.4792027906938L202.86160714285714,159.38784425908867L203.85602678571428,157.9241015694358L204.85044642857144,161.0098054192283L205.84486607142858,159.93387352336535L206.83928571428572,160.4871944947676L207.83370535714286,160.08807962590996L208.828125,160.0121918591586L209.82254464285714,160.47342127019706L210.81696428571428,160.5315234444358L211.81138392857142,160.80513607371935L212.80580357142856,160.60154698111793L213.80022321428572,162.37194646488535L214.79464285714286,161.70865188945422L215.7890625,161.95672425356778L216.78348214285714,161.55868963761762L217.77790178571428,162.47777266935867L218.77232142857142,161.86598300933835L219.76674107142856,161.4673696864735L220.7611607142857,161.92778890783134L221.75558035714283,161.5921774777499L222.75,161.89362590963188L223.74441964285714,162.36845493316648L224.73883928571428,162.56729862906715L225.73325892857142,162.0569948716597L226.72767857142858,162.52676985480568L227.72209821428572,161.7677185752175L228.71651785714286,162.61527343229812L229.7109375,161.78137605840507L230.70535714285717,162.0768252286044L231.6997767857143,162.7212539586154L232.69419642857144,163.2906244017861L233.68861607142858,163.1962565942244L234.68303571428572,163.56649398803708L235.67745535714286,162.9936705936085L236.671875,161.7164065621116L237.66629464285714,163.1768506223505L238.66071428571428,162.79012008146805L239.65513392857144,163.9000992341475L240.64955357142858,163.06788011030716L241.64397321428572,164.32041406631467L242.63839285714286,162.8241287578236L243.6328125,163.99599096991798L244.62723214285714,163.28591758554631L245.62165178571428,162.945715080608L246.61607142857142,164.06805927103215L247.61049107142856,164.34207699515602L248.60491071428572,162.4736638502641L249.59933035714286,163.58063372698697L250.59375,164.37934572046453L251.58816964285714,163.67529088800603L252.58258928571428,163.91460548747668L253.57700892857142,164.4486169381575L254.57142857142856,164.20189489017832L255.5658482142857,163.55407107960093L256.56026785714283,164.44898345253682L257.5546875,165.05475456064397L258.54910714285717,164.49084325270218L259.5435267857143,165.50834504040805L260.53794642857144,164.66447461735117L261.53236607142856,164.65986425226384L262.5267857142857,164.74387320605192L263.52120535714283,164.97425642880526L264.515625,164.42733981392598L265.51004464285717,165.3260523622686L266.5044642857143,165.42541633952746L267.49888392857144,165.60433322733098" style="fill: none;" fill="none"></path></g><g><path stroke="rgb(255, 112, 67)" stroke-width="2px" d="M29.832589285714285,-0.7358065518465837L30.827008928571427,8.755951361222705L31.82142857142857,15.282723686911842L32.815848214285715,21.99055411598899L33.810267857142854,27.794637246565383L34.8046875,32.08131226626309L35.79910714285714,37.95765660025857L36.793526785714285,43.56540376489812L37.78794642857142,46.436870314858176L38.78236607142857,51.73377470536665L39.776785714285715,54.125763286243775L40.77120535714286,58.5928405414928L41.765625,61.15631927143443L42.760044642857146,63.92222968014803L43.754464285714285,66.49184270338579L44.74888392857143,68.99312973022461L45.74330357142857,71.24997095628218L46.73772321428571,74.22363714738326L47.732142857142854,75.45636003667657L48.7265625,78.50143866105513L49.720982142857146,82.10998491807418L50.715401785714285,83.6223775690252L51.70982142857143,85.85437297821045L52.70424107142857,87.23339297554709L53.698660714285715,88.91978350552644L54.693080357142854,90.70617459037085L55.6875,93.31000848249955L56.681919642857146,94.70801006663929L57.67633928571429,94.8881808194247L58.67075892857143,97.85474820570512L59.66517857142857,99.20965541492808L60.659598214285715,101.65349613536488L61.654017857142854,102.35562194477427L62.6484375,103.56998053464021L63.64285714285714,105.53573218258943L64.63727678571429,105.9782886505127L65.63169642857143,107.87347663532603L66.62611607142857,109.21719551086426L67.62053571428571,109.7136488827792L68.61495535714286,110.05134365775366L69.609375,112.0997346531261L70.60379464285714,113.19163885983552L71.59821428571428,113.9002461866899L72.59263392857143,116.21792879971589L73.58705357142857,116.31164073944092L74.58147321428571,116.9128014824607L75.57589285714285,117.6639244773171L76.5703125,118.82735685868697L77.56473214285714,120.10379141027276L78.55915178571429,120.90410449288106L79.55357142857143,121.35480143807149L80.54799107142858,122.33219883658667L81.54241071428572,123.94686828960072L82.53683035714286,123.87707623568447L83.53125,124.76473548195577L84.52566964285714,125.78453280709005L85.52008928571429,126.28060037439519L86.51450892857143,126.68203007091175L87.50892857142857,127.11281949823552L88.50334821428571,128.4244780106978L89.49776785714286,128.1477403640747L90.4921875,129.51352726329455L91.48660714285714,130.011060888117L92.48102678571428,131.14648385481402L93.47544642857142,132.24429087205365L94.46986607142857,132.39610498601738L95.46428571428571,132.36867427825928L96.45870535714286,132.92515884746203L97.453125,133.3651304244995L98.44754464285715,134.3593489040028L99.44196428571429,134.57397200844503L100.43638392857143,134.59295359524813L101.43080357142857,136.2151848186146L102.42522321428572,136.3259107416326L103.41964285714286,137.4398443915627L104.4140625,136.64068872278386L105.40848214285714,137.4006852236661L106.40290178571428,138.13529578122225L107.39732142857143,138.82696628570557L108.39174107142857,139.73707936026832L109.38616071428571,139.10864223133433L110.38058035714285,139.2652789029208L111.375,140.2849990671331L112.36941964285714,140.63615842299026L113.36383928571429,141.03411587801847L114.35825892857143,140.8682970567183L115.35267857142858,141.25680229880592L116.34709821428572,141.0091157393022L117.34151785714286,142.63717261227694L118.3359375,142.57775870236483L119.33035714285714,143.04365634918213L120.32477678571429,144.00045178153297L121.31919642857143,143.81264209747314L122.31361607142857,143.99543632160533L123.30803571428571,144.68907442959872L124.30245535714286,145.35096081820402L125.296875,145.8447521383112L126.29129464285714,145.89911200783467L127.28571428571428,145.63201947645706L128.28013392857142,144.76924462751907L129.27455357142858,148.32451126792213L130.26897321428572,147.14969765056262L131.26339285714286,147.51162095503372L132.2578125,148.86020096865568L133.25223214285714,148.48550753159955L134.24665178571428,148.24441823092374L135.24107142857142,148.95804101770574L136.23549107142856,148.91301761973986L137.22991071428572,148.77601840279317L138.22433035714286,148.93242359161377L139.21875,149.84168789603493L140.21316964285714,149.72170266238126L141.20758928571428,150.2251776781949L142.20200892857142,150.4561203176325L143.19642857142856,150.55889866568825L144.19084821428572,151.22853972695088L145.18526785714286,151.72827243804932L146.1796875,152.30755805969238L147.17410714285714,151.55774680050936L148.16852678571428,152.58541453968394L149.16294642857142,152.46245861053467L150.15736607142856,153.14795624126086L151.1517857142857,153.16886685111305L152.14620535714283,153.57407743280584L153.140625,153.53511116721413L154.13504464285714,154.1752767562866L155.12946428571428,153.5381204431707L156.12388392857142,153.67550546472722L157.11830357142858,153.91127066178754L158.11272321428572,154.4990825653076L159.10714285714286,155.24036754261363L160.1015625,154.72011002627286L161.09598214285717,155.9806880083951L162.0904017857143,154.86729448491874L163.08482142857144,156.2175334583629L164.07924107142858,155.746581771157L165.07366071428572,155.39090850136495L166.06808035714286,156.76136363636363L167.0625,157.0602464675903L168.05691964285714,156.05256340720436L169.05133928571428,157.02587127685544L170.04575892857144,157.76449420235372L171.04017857142858,156.55364643443713L172.03459821428572,158.54104172099719L173.02901785714286,157.7665003863248L174.0234375,158.4901540929621L175.01785714285714,157.91823733936656L176.01227678571428,158.12471996654162L177.00669642857142,158.4822065179998L178.00111607142856,157.69335183230314L178.99553571428572,158.94798842343417L179.98995535714286,159.48634017597544L180.984375,158.9048554680564L181.97879464285714,159.9246527931907L182.97321428571428,158.51704467426646L183.96763392857142,159.265737100081L184.96205357142856,159.96898174285886L185.9564732142857,159.44907145066693L186.95089285714283,160.08549473502418L187.9453125,159.83850262381813L188.93973214285714,160.37210897965863L189.93415178571428,160.48314354636452L190.92857142857142,160.62110727483574L191.92299107142858,161.26922043887052L192.91741071428572,161.16327849301425L193.91183035714286,160.78827641227028L194.90625,162.04850717024368L195.90066964285717,161.23422796075994L196.8950892857143,161.389591477134L197.88950892857144,161.12469803203234L198.88392857142858,162.6266353780573L199.87834821428572,162.15020526539195L200.87276785714286,161.54946890744296L201.8671875,162.81550602479413L202.86160714285714,162.58280797438186L203.85602678571428,163.111881126057L204.85044642857144,162.37534154545176L205.84486607142858,162.89694937792692L206.83928571428572,162.2681071541526L207.83370535714286,163.29884203997526L208.828125,162.8720649805936L209.82254464285714,163.58335364948618L210.81696428571428,163.93657706000587L211.81138392857142,163.63696120002052L212.80580357142856,163.35422429171476L213.80022321428572,163.58709595420143L214.79464285714286,163.30246860330755L215.7890625,164.46308461102572L216.78348214285714,164.03318253430453L217.77790178571428,163.27991832386363L218.77232142857142,164.26300634037364L219.76674107142856,164.64859875765714L220.7611607142857,163.80386027422819L221.75558035714283,164.07824451273137L222.75,164.96513214978305L223.74441964285714,164.4100750576366L224.73883928571428,164.9383573098616L225.73325892857142,164.53328175978226L226.72767857142858,165.7762091810053L227.72209821428572,165.18320820548317L228.71651785714286,165.12585835023359L229.7109375,165.7819576696916L230.70535714285717,165.881225195798L231.6997767857143,165.66872401670975L232.69419642857144,165.86297663775358L233.68861607142858,166.55250592665237L234.68303571428572,165.91712431474164L235.67745535714286,166.25389315865255L236.671875,166.03303930976173L237.66629464285714,166.42281770706174L238.66071428571428,165.85151824084195L239.65513392857144,166.81440938602793L240.64955357142858,166.6195973482999L241.64397321428572,167.42405783046374L242.63839285714286,166.2810345129533L243.6328125,166.66330901059237L244.62723214285714,168.02543076601896L245.62165178571428,167.24421501159665L246.61607142857142,166.54837781732732L247.61049107142856,167.29870991273359L248.60491071428572,168.03117925470525L249.59933035714286,166.6252493858337L250.59375,167.46184739199552L251.58816964285714,167.69840348850596L252.58258928571428,167.12694970044222L253.57700892857142,167.51817486502907L254.57142857142856,168.67321599613535L255.5658482142857,168.6126060919328L256.56026785714283,168.06283452294088L257.5546875,168.55735887180674L258.54910714285717,168.76885695890945L259.5435267857143,167.90465463291514L260.53794642857144,168.51185321807858L261.53236607142856,169.09096522764725L262.5267857142857,168.88446331024167L263.52120535714283,167.9345737804066L264.515625,168.85477564551613L265.51004464285717,169.68429413708773L266.5044642857143,168.61908760937777L267.49888392857144,169.76299827749077" style="fill: none;" fill="none"></path></g></g></g></g></g></g><g transform="translate(51, 178)" clip-path="url(#clip_1)"><clipPath id="clip_1"><rect width="278" height="21"></rect></clipPath><g><g><line x1="0" y1="0" x2="0" y2="5" style="visibility: inherit;" fill="rgb(0, 0, 0)" stroke="rgb(204, 204, 204)" stroke-width="1px"></line><line x1="19.888392857142858" y1="0" x2="19.888392857142858" y2="5" style="visibility: inherit;" fill="rgb(0, 0, 0)" stroke="rgb(204, 204, 204)" stroke-width="1px"></line><line x1="39.776785714285715" y1="0" x2="39.776785714285715" y2="5" style="visibility: inherit;" fill="rgb(0, 0, 0)" stroke="rgb(204, 204, 204)" stroke-width="1px"></line><line x1="59.66517857142857" y1="0" x2="59.66517857142857" y2="5" style="visibility: inherit;" fill="rgb(0, 0, 0)" stroke="rgb(204, 204, 204)" stroke-width="1px"></line><line x1="79.55357142857143" y1="0" x2="79.55357142857143" y2="5" style="visibility: inherit;" fill="rgb(0, 0, 0)" stroke="rgb(204, 204, 204)" stroke-width="1px"></line><line x1="99.44196428571429" y1="0" x2="99.44196428571429" y2="5" style="visibility: inherit;" fill="rgb(0, 0, 0)" stroke="rgb(204, 204, 204)" stroke-width="1px"></line><line x1="119.33035714285714" y1="0" x2="119.33035714285714" y2="5" style="visibility: inherit;" fill="rgb(0, 0, 0)" stroke="rgb(204, 204, 204)" stroke-width="1px"></line><line x1="139.21875" y1="0" x2="139.21875" y2="5" style="visibility: inherit;" fill="rgb(0, 0, 0)" stroke="rgb(204, 204, 204)" stroke-width="1px"></line><line x1="159.10714285714286" y1="0" x2="159.10714285714286" y2="5" style="visibility: inherit;" fill="rgb(0, 0, 0)" stroke="rgb(204, 204, 204)" stroke-width="1px"></line><line x1="178.99553571428572" y1="0" x2="178.99553571428572" y2="5" style="visibility: inherit;" fill="rgb(0, 0, 0)" stroke="rgb(204, 204, 204)" stroke-width="1px"></line><line x1="198.88392857142858" y1="0" x2="198.88392857142858" y2="5" style="visibility: inherit;" fill="rgb(0, 0, 0)" stroke="rgb(204, 204, 204)" stroke-width="1px"></line><line x1="218.77232142857142" y1="0" x2="218.77232142857142" y2="5" style="visibility: inherit;" fill="rgb(0, 0, 0)" stroke="rgb(204, 204, 204)" stroke-width="1px"></line><line x1="238.66071428571428" y1="0" x2="238.66071428571428" y2="5" style="visibility: inherit;" fill="rgb(0, 0, 0)" stroke="rgb(204, 204, 204)" stroke-width="1px"></line><line x1="258.54910714285717" y1="0" x2="258.54910714285717" y2="5" style="visibility: inherit;" fill="rgb(0, 0, 0)" stroke="rgb(204, 204, 204)" stroke-width="1px"></line><line x1="278.4375" y1="0" x2="278.4375" y2="5" style="visibility: inherit;" fill="rgb(0, 0, 0)" stroke="rgb(204, 204, 204)" stroke-width="1px"></line></g><g transform="translate(0, 8)"><text x="0" y="0" dx="0em" dy="0.95em" style="text-anchor: middle; visibility: hidden; font-family: Roboto, sans-serif; font-size: 12px; font-weight: 200;" fill="rgb(50, 49, 63)" stroke="none" stroke-width="1px">-20</text><text x="19.888392857142858" y="0" dx="0em" dy="0.95em" style="text-anchor: middle; visibility: inherit; font-family: Roboto, sans-serif; font-size: 12px; font-weight: 200;" fill="rgb(50, 49, 63)" stroke="none" stroke-width="1px">0</text><text x="39.776785714285715" y="0" dx="0em" dy="0.95em" style="text-anchor: middle; visibility: hidden; font-family: Roboto, sans-serif; font-size: 12px; font-weight: 200;" fill="rgb(50, 49, 63)" stroke="none" stroke-width="1px">20</text><text x="59.66517857142857" y="0" dx="0em" dy="0.95em" style="text-anchor: middle; visibility: inherit; font-family: Roboto, sans-serif; font-size: 12px; font-weight: 200;" fill="rgb(50, 49, 63)" stroke="none" stroke-width="1px">40</text><text x="79.55357142857143" y="0" dx="0em" dy="0.95em" style="text-anchor: middle; visibility: hidden; font-family: Roboto, sans-serif; font-size: 12px; font-weight: 200;" fill="rgb(50, 49, 63)" stroke="none" stroke-width="1px">60</text><text x="99.44196428571429" y="0" dx="0em" dy="0.95em" style="text-anchor: middle; visibility: inherit; font-family: Roboto, sans-serif; font-size: 12px; font-weight: 200;" fill="rgb(50, 49, 63)" stroke="none" stroke-width="1px">80</text><text x="119.33035714285714" y="0" dx="0em" dy="0.95em" style="text-anchor: middle; visibility: hidden; font-family: Roboto, sans-serif; font-size: 12px; font-weight: 200;" fill="rgb(50, 49, 63)" stroke="none" stroke-width="1px">100</text><text x="139.21875" y="0" dx="0em" dy="0.95em" style="text-anchor: middle; visibility: inherit; font-family: Roboto, sans-serif; font-size: 12px; font-weight: 200;" fill="rgb(50, 49, 63)" stroke="none" stroke-width="1px">120</text><text x="159.10714285714286" y="0" dx="0em" dy="0.95em" style="text-anchor: middle; visibility: hidden; font-family: Roboto, sans-serif; font-size: 12px; font-weight: 200;" fill="rgb(50, 49, 63)" stroke="none" stroke-width="1px">140</text><text x="178.99553571428572" y="0" dx="0em" dy="0.95em" style="text-anchor: middle; visibility: inherit; font-family: Roboto, sans-serif; font-size: 12px; font-weight: 200;" fill="rgb(50, 49, 63)" stroke="none" stroke-width="1px">160</text><text x="198.88392857142858" y="0" dx="0em" dy="0.95em" style="text-anchor: middle; visibility: hidden; font-family: Roboto, sans-serif; font-size: 12px; font-weight: 200;" fill="rgb(50, 49, 63)" stroke="none" stroke-width="1px">180</text><text x="218.77232142857142" y="0" dx="0em" dy="0.95em" style="text-anchor: middle; visibility: inherit; font-family: Roboto, sans-serif; font-size: 12px; font-weight: 200;" fill="rgb(50, 49, 63)" stroke="none" stroke-width="1px">200</text><text x="238.66071428571428" y="0" dx="0em" dy="0.95em" style="text-anchor: middle; visibility: hidden; font-family: Roboto, sans-serif; font-size: 12px; font-weight: 200;" fill="rgb(50, 49, 63)" stroke="none" stroke-width="1px">220</text><text x="258.54910714285717" y="0" dx="0em" dy="0.95em" style="text-anchor: middle; visibility: inherit; font-family: Roboto, sans-serif; font-size: 12px; font-weight: 200;" fill="rgb(50, 49, 63)" stroke="none" stroke-width="1px">240</text><text x="278.4375" y="0" dx="0em" dy="0.95em" style="text-anchor: middle; visibility: hidden; font-family: Roboto, sans-serif; font-size: 12px; font-weight: 200;" fill="rgb(50, 49, 63)" stroke="none" stroke-width="1px">260</text></g><line x1="0" y1="0" x2="278.4375" y2="0" fill="rgb(0, 0, 0)" stroke="rgb(204, 204, 204)" stroke-width="1px"></line></g></g></g></g></svg>